<?xml version="1.0" standalone="no"?><!-- Generator: Gravit.io --><svg xmlns="http://www.w3.org/2000/svg" xmlns:xlink="http://www.w3.org/1999/xlink" style="isolation:isolate" viewBox="0 0 200 100" width="200" height="100"><defs><clipPath id="_clipPath_PjMUTFImmqH4IiHo6aNUwr2dquoiHlXR"><rect width="200" height="100"/></clipPath></defs><g clip-path="url(#_clipPath_PjMUTFImmqH4IiHo6aNUwr2dquoiHlXR)"><path d=" M 118.26 31.131 L 118.26 31.131 L 118.26 31.131 Q 118.26 25.95 121.183 22.562 L 121.183 22.562 L 121.183 22.562 Q 124.106 19.174 128.723 19.174 L 128.723 19.174 L 128.723 19.174 Q 132.742 19.174 135.997 21.997 L 135.997 21.997 L 135.997 21.997 Q 136.528 22.429 136.528 21.665 L 136.528 21.665 L 136.528 20.005 L 136.528 20.005 Q 136.528 19.506 137.026 19.506 L 137.026 19.506 L 137.026 19.506 Q 137.525 19.506 137.525 20.005 L 137.525 20.005 L 137.525 26.315 L 137.525 26.315 Q 137.525 26.814 137.026 26.814 L 137.026 26.814 L 137.026 26.814 Q 136.528 26.814 136.528 26.315 L 136.528 26.315 L 136.528 23.99 L 136.528 23.99 Q 135.631 22.961 134.436 22.097 L 134.436 22.097 L 134.436 22.097 Q 131.712 20.171 128.723 20.171 L 128.723 20.171 L 128.723 20.171 Q 124.637 20.171 121.947 23.309 L 121.947 23.309 L 121.947 23.309 Q 119.257 26.448 119.257 31.181 L 119.257 31.181 L 119.257 31.181 Q 119.257 35.914 122.047 39.003 L 122.047 39.003 L 122.047 39.003 Q 124.837 42.092 129.487 42.092 L 129.487 42.092 L 129.487 42.092 Q 134.137 42.092 136.993 39.07 L 136.993 39.07 L 136.993 39.07 Q 137.325 38.737 137.591 39.003 L 137.591 39.003 L 137.591 39.003 Q 137.857 39.269 137.857 39.435 L 137.857 39.435 L 137.857 39.435 Q 137.857 39.601 137.691 39.767 L 137.691 39.767 L 137.691 39.767 Q 134.303 43.089 129.337 43.089 L 129.337 43.089 L 129.337 43.089 Q 124.372 43.089 121.316 39.701 L 121.316 39.701 L 121.316 39.701 Q 118.26 36.313 118.26 31.131 Z  M 141.444 41.76 L 141.444 41.76 L 143.769 41.76 L 143.769 41.76 Q 144.267 41.76 144.267 41.262 L 144.267 41.262 L 144.267 21.001 L 144.267 21.001 Q 144.267 20.503 143.769 20.503 L 143.769 20.503 L 141.444 20.503 L 141.444 20.503 Q 140.946 20.503 140.946 20.005 L 140.946 20.005 L 140.946 20.005 Q 140.946 19.506 141.444 19.506 L 141.444 19.506 L 145.098 19.506 L 145.098 19.506 Q 145.695 19.506 145.928 20.005 L 145.928 20.005 L 155.228 40.597 L 155.228 40.597 Q 155.56 41.262 155.892 40.597 L 155.892 40.597 L 165.192 20.005 L 165.192 20.005 Q 165.425 19.506 166.023 19.506 L 166.023 19.506 L 169.676 19.506 L 169.676 19.506 Q 170.174 19.506 170.174 20.005 L 170.174 20.005 L 170.174 20.005 Q 170.174 20.503 169.676 20.503 L 169.676 20.503 L 167.351 20.503 L 167.351 20.503 Q 166.853 20.503 166.853 21.001 L 166.853 21.001 L 166.853 41.262 L 166.853 41.262 Q 166.853 41.76 167.351 41.76 L 167.351 41.76 L 169.676 41.76 L 169.676 41.76 Q 170.174 41.76 170.174 42.258 L 170.174 42.258 L 170.174 42.258 Q 170.174 42.756 169.676 42.756 L 169.676 42.756 L 163.365 42.756 L 163.365 42.756 Q 162.867 42.756 162.867 42.258 L 162.867 42.258 L 162.867 42.258 Q 162.867 41.76 163.365 41.76 L 163.365 41.76 L 165.358 41.76 L 165.358 41.76 Q 165.856 41.76 165.856 41.262 L 165.856 41.262 L 165.856 21.831 L 165.856 21.831 Q 165.856 21.499 165.724 21.566 L 165.724 21.566 L 165.724 21.566 Q 165.657 21.566 165.591 21.665 L 165.591 21.665 L 156.291 42.258 L 156.291 42.258 Q 156.025 42.756 155.56 42.756 L 155.56 42.756 L 155.56 42.756 Q 155.095 42.756 154.829 42.258 L 154.829 42.258 L 145.529 21.665 L 145.529 21.665 Q 145.396 21.466 145.33 21.566 L 145.33 21.566 L 145.33 21.566 Q 145.264 21.665 145.264 21.831 L 145.264 21.831 L 145.264 41.262 L 145.264 41.262 Q 145.264 41.76 145.762 41.76 L 145.762 41.76 L 147.755 41.76 L 147.755 41.76 Q 148.253 41.76 148.253 42.258 L 148.253 42.258 L 148.253 42.258 Q 148.253 42.756 147.755 42.756 L 147.755 42.756 L 141.444 42.756 L 141.444 42.756 Q 140.946 42.756 140.946 42.258 L 140.946 42.258 L 140.946 42.258 Q 140.946 41.76 141.444 41.76 Z  M 177.149 40.265 L 177.149 40.265 L 177.149 40.265 Q 179.939 42.092 183.277 42.092 L 183.277 42.092 L 183.277 42.092 Q 186.615 42.092 188.459 40.614 L 188.459 40.614 L 188.459 40.614 Q 190.302 39.136 190.302 36.778 L 190.302 36.778 L 190.302 36.778 Q 190.302 35.482 189.505 34.519 L 189.505 34.519 L 189.505 34.519 Q 188.708 33.556 187.512 33.025 L 187.512 33.025 L 187.512 33.025 Q 186.184 32.427 182.364 31.381 L 182.364 31.381 L 182.364 31.381 Q 178.544 30.334 177.099 29.62 L 177.099 29.62 L 177.099 29.62 Q 175.655 28.906 174.841 27.81 L 174.841 27.81 L 174.841 27.81 Q 174.027 26.714 174.027 25.286 L 174.027 25.286 L 174.027 25.286 Q 174.027 22.496 175.854 20.835 L 175.854 20.835 L 175.854 20.835 Q 177.681 19.174 181.666 19.174 L 181.666 19.174 L 181.666 19.174 Q 185.619 19.174 188.94 21.997 L 188.94 21.997 L 188.94 21.997 Q 189.472 22.429 189.472 21.665 L 189.472 21.665 L 189.472 20.005 L 189.472 20.005 Q 189.472 19.506 189.97 19.506 L 189.97 19.506 L 189.97 19.506 Q 190.468 19.506 190.468 20.005 L 190.468 20.005 L 190.468 26.315 L 190.468 26.315 Q 190.468 26.814 189.97 26.814 L 189.97 26.814 L 189.97 26.814 Q 189.472 26.814 189.472 26.315 L 189.472 26.315 L 189.472 23.99 L 189.472 23.99 Q 187.645 21.898 184.921 20.769 L 184.921 20.769 L 184.921 20.769 Q 183.46 20.171 181.666 20.171 L 181.666 20.171 L 181.666 20.171 Q 178.279 20.171 176.651 21.566 L 176.651 21.566 L 176.651 21.566 Q 175.024 22.961 175.024 24.987 L 175.024 24.987 L 175.024 24.987 Q 175.024 26.282 175.821 27.245 L 175.821 27.245 L 175.821 27.245 Q 176.618 28.209 177.814 28.74 L 177.814 28.74 L 177.814 28.74 Q 179.142 29.338 182.962 30.384 L 182.962 30.384 L 182.962 30.384 Q 186.781 31.43 188.226 32.144 L 188.226 32.144 L 188.226 32.144 Q 189.671 32.859 190.485 33.955 L 190.485 33.955 L 190.485 33.955 Q 191.299 35.051 191.299 36.579 L 191.299 36.579 L 191.299 36.579 Q 191.299 39.568 189.206 41.328 L 189.206 41.328 L 189.206 41.328 Q 187.114 43.089 182.995 43.089 L 182.995 43.089 L 182.995 43.089 Q 178.876 43.089 175.555 40.265 L 175.555 40.265 L 175.555 40.265 Q 175.024 39.834 175.024 40.597 L 175.024 40.597 L 175.024 42.258 L 175.024 42.258 Q 175.024 42.756 174.525 42.756 L 174.525 42.756 L 174.525 42.756 Q 174.027 42.756 174.027 42.258 L 174.027 42.258 L 174.027 35.947 L 174.027 35.947 Q 174.027 35.449 174.525 35.449 L 174.525 35.449 L 174.525 35.449 Q 175.024 35.449 175.024 35.947 L 175.024 35.947 L 175.024 38.439 L 175.024 38.439 Q 175.92 39.468 177.149 40.265 Z  M 18.551 30.334 L 18.551 30.334 L 18.551 30.334 Q 23.367 31.264 23.367 36.711 L 23.367 36.711 L 23.367 36.711 Q 23.367 39.369 21.723 41.063 L 21.723 41.063 L 21.723 41.063 Q 20.079 42.756 17.056 42.756 L 17.056 42.756 L 5.597 42.756 L 5.597 42.756 Q 5.099 42.756 5.099 42.258 L 5.099 42.258 L 5.099 42.258 Q 5.099 41.76 5.597 41.76 L 5.597 41.76 L 7.923 41.76 L 7.923 41.76 Q 8.421 41.76 8.421 41.262 L 8.421 41.262 L 8.421 21.001 L 8.421 21.001 Q 8.421 20.503 7.923 20.503 L 7.923 20.503 L 5.597 20.503 L 5.597 20.503 Q 5.099 20.503 5.099 20.005 L 5.099 20.005 L 5.099 20.005 Q 5.099 19.506 5.597 19.506 L 5.597 19.506 L 15.728 19.506 L 15.728 19.506 Q 18.385 19.506 20.046 21.167 L 20.046 21.167 L 20.046 21.167 Q 21.706 22.828 21.706 25.319 L 21.706 25.319 L 21.706 25.319 Q 21.706 28.84 18.551 30.334 Z  M 9.417 21.001 L 9.417 29.637 L 9.417 29.637 Q 9.417 30.135 9.915 30.135 L 9.915 30.135 L 15.894 30.135 L 15.894 30.135 Q 17.986 30.135 19.348 28.723 L 19.348 28.723 L 19.348 28.723 Q 20.71 27.312 20.71 25.253 L 20.71 25.253 L 20.71 25.253 Q 20.71 23.193 19.365 21.848 L 19.365 21.848 L 19.365 21.848 Q 18.02 20.503 15.728 20.503 L 15.728 20.503 L 9.915 20.503 L 9.915 20.503 Q 9.417 20.503 9.417 21.001 L 9.417 21.001 Z  M 9.417 31.63 L 9.417 41.262 L 9.417 41.262 Q 9.417 41.76 9.915 41.76 L 9.915 41.76 L 17.056 41.76 L 17.056 41.76 Q 19.548 41.76 20.959 40.348 L 20.959 40.348 L 20.959 40.348 Q 22.371 38.937 22.371 36.446 L 22.371 36.446 L 22.371 36.446 Q 22.371 33.955 20.959 32.543 L 20.959 32.543 L 20.959 32.543 Q 19.548 31.131 17.056 31.131 L 17.056 31.131 L 9.915 31.131 L 9.915 31.131 Q 9.417 31.131 9.417 31.63 L 9.417 31.63 Z  M 39.177 37.608 L 39.177 34.619 L 39.177 34.619 Q 39.177 34.121 38.679 34.121 L 38.679 34.121 L 33.199 34.121 L 33.199 34.121 Q 30.309 34.121 28.931 35.25 L 28.931 35.25 L 28.931 35.25 Q 27.552 36.379 27.552 38.123 L 27.552 38.123 L 27.552 38.123 Q 27.552 39.867 28.831 40.979 L 28.831 40.979 L 28.831 40.979 Q 30.11 42.092 32.7 42.092 L 32.7 42.092 L 32.7 42.092 Q 35.922 42.092 38.38 38.837 L 38.38 38.837 L 38.38 38.837 Q 38.812 38.272 39.177 37.608 L 39.177 37.608 Z  M 33.996 25.817 L 33.996 25.817 L 33.996 25.817 Q 36.786 25.817 38.48 27.395 L 38.48 27.395 L 38.48 27.395 Q 40.174 28.972 40.174 31.298 L 40.174 31.298 L 40.174 41.262 L 40.174 41.262 Q 40.174 41.76 40.672 41.76 L 40.672 41.76 L 42.997 41.76 L 42.997 41.76 Q 43.495 41.76 43.495 42.258 L 43.495 42.258 L 43.495 42.258 Q 43.495 42.756 42.997 42.756 L 42.997 42.756 L 39.675 42.756 L 39.675 42.756 Q 39.177 42.756 39.177 42.258 L 39.177 42.258 L 39.177 40.398 L 39.177 40.398 Q 39.177 40.066 39.044 39.933 L 39.044 39.933 L 39.044 39.933 Q 38.911 39.8 38.646 40.066 L 38.646 40.066 L 38.646 40.066 Q 37.749 41.195 36.155 42.142 L 36.155 42.142 L 36.155 42.142 Q 34.56 43.089 32.833 43.089 L 32.833 43.089 L 32.833 43.089 Q 29.744 43.089 28.15 41.71 L 28.15 41.71 L 28.15 41.71 Q 26.556 40.332 26.556 38.14 L 26.556 38.14 L 26.556 38.14 Q 26.556 35.947 28.382 34.536 L 28.382 34.536 L 28.382 34.536 Q 30.209 33.124 33.199 33.124 L 33.199 33.124 L 38.679 33.124 L 38.679 33.124 Q 39.177 33.124 39.177 32.626 L 39.177 32.626 L 39.177 31.298 L 39.177 31.298 Q 39.177 29.371 37.716 28.092 L 37.716 28.092 L 37.716 28.092 Q 36.254 26.814 34.129 26.814 L 34.129 26.814 L 34.129 26.814 Q 32.003 26.814 30.641 27.395 L 30.641 27.395 L 30.641 27.395 Q 29.279 27.976 28.731 28.408 L 28.731 28.408 L 28.731 28.408 Q 28.183 28.84 27.901 28.441 L 27.901 28.441 L 27.901 28.441 Q 27.619 28.042 27.984 27.777 L 27.984 27.777 L 27.984 27.777 Q 30.375 25.817 33.996 25.817 Z  M 58.641 26.814 L 58.01 26.814 L 58.01 26.814 Q 53.825 26.814 51.035 30.102 L 51.035 30.102 L 51.035 30.102 Q 50.237 31.032 49.706 31.962 L 49.706 31.962 L 49.706 41.262 L 49.706 41.262 Q 49.706 41.76 50.204 41.76 L 50.204 41.76 L 52.861 41.76 L 52.861 41.76 Q 53.36 41.76 53.36 42.258 L 53.36 42.258 L 53.36 42.258 Q 53.36 42.756 52.861 42.756 L 52.861 42.756 L 45.886 42.756 L 45.886 42.756 Q 45.388 42.756 45.388 42.258 L 45.388 42.258 L 45.388 42.258 Q 45.388 41.76 45.886 41.76 L 45.886 41.76 L 48.211 41.76 L 48.211 41.76 Q 48.71 41.76 48.71 41.262 L 48.71 41.262 L 48.71 27.644 L 48.71 27.644 Q 48.71 27.146 48.211 27.146 L 48.211 27.146 L 45.886 27.146 L 45.886 27.146 Q 45.388 27.146 45.388 26.647 L 45.388 26.647 L 45.388 26.647 Q 45.388 26.149 45.886 26.149 L 45.886 26.149 L 49.208 26.149 L 49.208 26.149 Q 49.706 26.149 49.706 26.647 L 49.706 26.647 L 49.706 29.271 L 49.706 29.271 Q 49.706 30.102 50.404 29.305 L 50.404 29.305 L 50.404 29.305 Q 51.632 27.91 53.609 26.863 L 53.609 26.863 L 53.609 26.863 Q 55.585 25.817 58.01 25.817 L 58.01 25.817 L 59.637 25.817 L 59.637 25.817 Q 60.135 25.817 60.135 26.315 L 60.135 26.315 L 60.135 30.467 L 60.135 30.467 Q 60.135 30.965 59.637 30.965 L 59.637 30.965 L 59.637 30.965 Q 59.139 30.965 59.139 30.467 L 59.139 30.467 L 59.139 27.312 L 59.139 27.312 Q 59.139 26.814 58.641 26.814 L 58.641 26.814 Z  M 75.48 26.814 L 74.849 26.814 L 74.849 26.814 Q 70.664 26.814 67.874 30.102 L 67.874 30.102 L 67.874 30.102 Q 67.077 31.032 66.546 31.962 L 66.546 31.962 L 66.546 41.262 L 66.546 41.262 Q 66.546 41.76 67.044 41.76 L 67.044 41.76 L 69.701 41.76 L 69.701 41.76 Q 70.199 41.76 70.199 42.258 L 70.199 42.258 L 70.199 42.258 Q 70.199 42.756 69.701 42.756 L 69.701 42.756 L 62.726 42.756 L 62.726 42.756 Q 62.228 42.756 62.228 42.258 L 62.228 42.258 L 62.228 42.258 Q 62.228 41.76 62.726 41.76 L 62.726 41.76 L 65.051 41.76 L 65.051 41.76 Q 65.549 41.76 65.549 41.262 L 65.549 41.262 L 65.549 27.644 L 65.549 27.644 Q 65.549 27.146 65.051 27.146 L 65.051 27.146 L 62.726 27.146 L 62.726 27.146 Q 62.228 27.146 62.228 26.647 L 62.228 26.647 L 62.228 26.647 Q 62.228 26.149 62.726 26.149 L 62.726 26.149 L 66.048 26.149 L 66.048 26.149 Q 66.546 26.149 66.546 26.647 L 66.546 26.647 L 66.546 29.271 L 66.546 29.271 Q 66.546 30.102 67.243 29.305 L 67.243 29.305 L 67.243 29.305 Q 68.472 27.91 70.448 26.863 L 70.448 26.863 L 70.448 26.863 Q 72.425 25.817 74.849 25.817 L 74.849 25.817 L 76.477 25.817 L 76.477 25.817 Q 76.975 25.817 76.975 26.315 L 76.975 26.315 L 76.975 30.467 L 76.975 30.467 Q 76.975 30.965 76.477 30.965 L 76.477 30.965 L 76.477 30.965 Q 75.979 30.965 75.979 30.467 L 75.979 30.467 L 75.979 27.312 L 75.979 27.312 Q 75.979 26.814 75.48 26.814 L 75.48 26.814 Z  M 79.599 42.756 L 79.599 42.756 Q 79.101 42.756 79.101 42.258 L 79.101 42.258 L 79.101 42.258 Q 79.101 41.76 79.599 41.76 L 79.599 41.76 L 81.924 41.76 L 81.924 41.76 Q 82.422 41.76 82.422 41.262 L 82.422 41.262 L 82.422 27.644 L 82.422 27.644 Q 82.422 27.146 81.924 27.146 L 81.924 27.146 L 79.599 27.146 L 79.599 27.146 Q 79.101 27.146 79.101 26.647 L 79.101 26.647 L 79.101 26.647 Q 79.101 26.149 79.599 26.149 L 79.599 26.149 L 82.92 26.149 L 82.92 26.149 Q 83.419 26.149 83.419 26.647 L 83.419 26.647 L 83.419 41.262 L 83.419 41.262 Q 83.419 41.76 83.917 41.76 L 83.917 41.76 L 86.242 41.76 L 86.242 41.76 Q 86.74 41.76 86.74 42.258 L 86.74 42.258 L 86.74 42.258 Q 86.74 42.756 86.242 42.756 L 86.242 42.756 L 79.599 42.756 Z  M 81.808 23.11 L 81.808 23.11 L 81.808 23.11 Q 81.426 22.728 81.426 22.164 L 81.426 22.164 L 81.426 22.164 Q 81.426 21.599 81.808 21.217 L 81.808 21.217 L 81.808 21.217 Q 82.19 20.835 82.754 20.835 L 82.754 20.835 L 82.754 20.835 Q 83.319 20.835 83.701 21.217 L 83.701 21.217 L 83.701 21.217 Q 84.083 21.599 84.083 22.164 L 84.083 22.164 L 84.083 22.164 Q 84.083 22.728 83.701 23.11 L 83.701 23.11 L 83.701 23.11 Q 83.319 23.492 82.754 23.492 L 82.754 23.492 L 82.754 23.492 Q 82.19 23.492 81.808 23.11 Z  M 91.324 40.697 L 91.324 40.697 L 91.324 40.697 Q 89.065 38.306 89.065 34.453 L 89.065 34.453 L 89.065 34.453 Q 89.065 30.6 91.324 28.209 L 91.324 28.209 L 91.324 28.209 Q 93.582 25.817 97.202 25.817 L 97.202 25.817 L 97.202 25.817 Q 100.823 25.817 103.081 28.209 L 103.081 28.209 L 103.081 28.209 Q 105.34 30.6 105.34 34.453 L 105.34 34.453 L 105.34 34.453 Q 105.34 38.306 103.081 40.697 L 103.081 40.697 L 103.081 40.697 Q 100.823 43.089 97.202 43.089 L 97.202 43.089 L 97.202 43.089 Q 93.582 43.089 91.324 40.697 Z  M 97.202 26.814 L 97.202 26.814 L 97.202 26.814 Q 93.981 26.814 92.021 28.906 L 92.021 28.906 L 92.021 28.906 Q 90.061 30.999 90.061 34.469 L 90.061 34.469 L 90.061 34.469 Q 90.061 37.94 92.004 40.016 L 92.004 40.016 L 92.004 40.016 Q 93.948 42.092 97.202 42.092 L 97.202 42.092 L 97.202 42.092 Q 100.457 42.092 102.401 40.016 L 102.401 40.016 L 102.401 40.016 Q 104.344 37.94 104.344 34.469 L 104.344 34.469 L 104.344 34.469 Q 104.344 30.999 102.384 28.906 L 102.384 28.906 L 102.384 28.906 Q 100.424 26.814 97.202 26.814 Z " fill-rule="evenodd" fill="rgb(0,0,0)"/><path d=" M 132.281 71.498 L 132.281 71.498 L 132.281 71.498 Q 130.912 71.498 130.161 70.655 L 130.161 70.655 L 130.161 70.655 Q 129.41 69.812 129.41 68.27 L 129.41 68.27 L 129.41 68.27 Q 129.41 66.687 130.172 65.824 L 130.172 65.824 L 130.172 65.824 Q 130.935 64.961 132.345 64.961 L 132.345 64.961 L 132.345 64.961 Q 132.799 64.961 133.254 65.058 L 133.254 65.058 L 133.254 65.058 Q 133.709 65.156 133.968 65.289 L 133.968 65.289 L 133.674 66.1 L 133.674 66.1 Q 133.358 65.973 132.983 65.89 L 132.983 65.89 L 132.983 65.89 Q 132.609 65.807 132.322 65.807 L 132.322 65.807 L 132.322 65.807 Q 130.4 65.807 130.4 68.258 L 130.4 68.258 L 130.4 68.258 Q 130.4 69.42 130.869 70.042 L 130.869 70.042 L 130.869 70.042 Q 131.338 70.664 132.258 70.664 L 132.258 70.664 L 132.258 70.664 Q 133.047 70.664 133.875 70.324 L 133.875 70.324 L 133.875 71.17 L 133.875 71.17 Q 133.242 71.498 132.281 71.498 Z  M 140.816 68.223 L 140.816 68.223 L 140.816 68.223 Q 140.816 69.766 140.039 70.632 L 140.039 70.632 L 140.039 70.632 Q 139.262 71.498 137.892 71.498 L 137.892 71.498 L 137.892 71.498 Q 137.046 71.498 136.39 71.101 L 136.39 71.101 L 136.39 71.101 Q 135.734 70.704 135.377 69.961 L 135.377 69.961 L 135.377 69.961 Q 135.021 69.219 135.021 68.223 L 135.021 68.223 L 135.021 68.223 Q 135.021 66.681 135.792 65.821 L 135.792 65.821 L 135.792 65.821 Q 136.563 64.961 137.933 64.961 L 137.933 64.961 L 137.933 64.961 Q 139.256 64.961 140.036 65.841 L 140.036 65.841 L 140.036 65.841 Q 140.816 66.722 140.816 68.223 Z  M 136.01 68.223 L 136.01 68.223 L 136.01 68.223 Q 136.01 69.432 136.494 70.065 L 136.494 70.065 L 136.494 70.065 Q 136.977 70.698 137.915 70.698 L 137.915 70.698 L 137.915 70.698 Q 138.853 70.698 139.34 70.068 L 139.34 70.068 L 139.34 70.068 Q 139.826 69.438 139.826 68.223 L 139.826 68.223 L 139.826 68.223 Q 139.826 67.021 139.34 66.396 L 139.34 66.396 L 139.34 66.396 Q 138.853 65.772 137.904 65.772 L 137.904 65.772 L 137.904 65.772 Q 136.966 65.772 136.488 66.388 L 136.488 66.388 L 136.488 66.388 Q 136.01 67.003 136.01 68.223 Z  M 147.762 71.383 L 146.806 71.383 L 146.806 67.303 L 146.806 67.303 Q 146.806 66.532 146.455 66.152 L 146.455 66.152 L 146.455 66.152 Q 146.104 65.772 145.356 65.772 L 145.356 65.772 L 145.356 65.772 Q 144.366 65.772 143.906 66.307 L 143.906 66.307 L 143.906 66.307 Q 143.446 66.842 143.446 68.074 L 143.446 68.074 L 143.446 71.383 L 142.49 71.383 L 142.49 65.076 L 143.267 65.076 L 143.423 65.939 L 143.469 65.939 L 143.469 65.939 Q 143.762 65.473 144.292 65.217 L 144.292 65.217 L 144.292 65.217 Q 144.821 64.961 145.471 64.961 L 145.471 64.961 L 145.471 64.961 Q 146.611 64.961 147.186 65.51 L 147.186 65.51 L 147.186 65.51 Q 147.762 66.06 147.762 67.268 L 147.762 67.268 L 147.762 71.383 Z  M 151.761 70.71 L 151.761 70.71 L 151.761 70.71 Q 152.014 70.71 152.25 70.672 L 152.25 70.672 L 152.25 70.672 Q 152.486 70.635 152.624 70.594 L 152.624 70.594 L 152.624 71.325 L 152.624 71.325 Q 152.469 71.4 152.167 71.449 L 152.167 71.449 L 152.167 71.449 Q 151.865 71.498 151.623 71.498 L 151.623 71.498 L 151.623 71.498 Q 149.793 71.498 149.793 69.57 L 149.793 69.57 L 149.793 65.818 L 148.89 65.818 L 148.89 65.358 L 149.793 64.961 L 150.196 63.614 L 150.748 63.614 L 150.748 65.076 L 152.578 65.076 L 152.578 65.818 L 150.748 65.818 L 150.748 69.53 L 150.748 69.53 Q 150.748 70.1 151.019 70.405 L 151.019 70.405 L 151.019 70.405 Q 151.289 70.71 151.761 70.71 Z  M 156.549 71.498 L 156.549 71.498 L 156.549 71.498 Q 155.151 71.498 154.342 70.646 L 154.342 70.646 L 154.342 70.646 Q 153.534 69.795 153.534 68.281 L 153.534 68.281 L 153.534 68.281 Q 153.534 66.756 154.285 65.858 L 154.285 65.858 L 154.285 65.858 Q 155.036 64.961 156.302 64.961 L 156.302 64.961 L 156.302 64.961 Q 157.487 64.961 158.178 65.74 L 158.178 65.74 L 158.178 65.74 Q 158.868 66.52 158.868 67.798 L 158.868 67.798 L 158.868 68.402 L 154.523 68.402 L 154.523 68.402 Q 154.552 69.513 155.085 70.088 L 155.085 70.088 L 155.085 70.088 Q 155.617 70.664 156.584 70.664 L 156.584 70.664 L 156.584 70.664 Q 157.602 70.664 158.598 70.238 L 158.598 70.238 L 158.598 71.089 L 158.598 71.089 Q 158.091 71.308 157.64 71.403 L 157.64 71.403 L 157.64 71.403 Q 157.188 71.498 156.549 71.498 Z  M 156.29 65.76 L 156.29 65.76 L 156.29 65.76 Q 155.531 65.76 155.079 66.255 L 155.079 66.255 L 155.079 66.255 Q 154.627 66.75 154.546 67.625 L 154.546 67.625 L 157.844 67.625 L 157.844 67.625 Q 157.844 66.722 157.441 66.241 L 157.441 66.241 L 157.441 66.241 Q 157.038 65.76 156.29 65.76 Z  M 165.768 71.383 L 164.813 71.383 L 164.813 67.303 L 164.813 67.303 Q 164.813 66.532 164.462 66.152 L 164.462 66.152 L 164.462 66.152 Q 164.111 65.772 163.363 65.772 L 163.363 65.772 L 163.363 65.772 Q 162.373 65.772 161.913 66.307 L 161.913 66.307 L 161.913 66.307 Q 161.452 66.842 161.452 68.074 L 161.452 68.074 L 161.452 71.383 L 160.497 71.383 L 160.497 65.076 L 161.274 65.076 L 161.429 65.939 L 161.475 65.939 L 161.475 65.939 Q 161.769 65.473 162.298 65.217 L 162.298 65.217 L 162.298 65.217 Q 162.828 64.961 163.478 64.961 L 163.478 64.961 L 163.478 64.961 Q 164.617 64.961 165.193 65.51 L 165.193 65.51 L 165.193 65.51 Q 165.768 66.06 165.768 67.268 L 165.768 67.268 L 165.768 71.383 Z  M 168.686 65.076 L 168.686 71.383 L 167.731 71.383 L 167.731 65.076 L 168.686 65.076 Z  M 167.65 63.366 L 167.65 63.366 L 167.65 63.366 Q 167.65 63.038 167.811 62.886 L 167.811 62.886 L 167.811 62.886 Q 167.972 62.733 168.214 62.733 L 168.214 62.733 L 168.214 62.733 Q 168.444 62.733 168.611 62.889 L 168.611 62.889 L 168.611 62.889 Q 168.778 63.044 168.778 63.366 L 168.778 63.366 L 168.778 63.366 Q 168.778 63.689 168.611 63.847 L 168.611 63.847 L 168.611 63.847 Q 168.444 64.005 168.214 64.005 L 168.214 64.005 L 168.214 64.005 Q 167.972 64.005 167.811 63.847 L 167.811 63.847 L 167.811 63.847 Q 167.65 63.689 167.65 63.366 Z  M 175.131 71.383 L 175.005 70.537 L 174.953 70.537 L 174.953 70.537 Q 174.291 71.498 172.973 71.498 L 172.973 71.498 L 172.973 71.498 Q 171.736 71.498 171.048 70.652 L 171.048 70.652 L 171.048 70.652 Q 170.361 69.806 170.361 68.247 L 170.361 68.247 L 170.361 68.247 Q 170.361 66.687 171.051 65.824 L 171.051 65.824 L 171.051 65.824 Q 171.742 64.961 172.973 64.961 L 172.973 64.961 L 172.973 64.961 Q 174.256 64.961 174.941 65.893 L 174.941 65.893 L 175.016 65.893 L 174.976 65.438 L 174.953 64.995 L 174.953 62.428 L 175.908 62.428 L 175.908 71.383 L 175.131 71.383 Z  M 173.094 70.698 L 173.094 70.698 L 173.094 70.698 Q 174.072 70.698 174.513 70.166 L 174.513 70.166 L 174.513 70.166 Q 174.953 69.633 174.953 68.448 L 174.953 68.448 L 174.953 68.247 L 174.953 68.247 Q 174.953 66.906 174.507 66.333 L 174.507 66.333 L 174.507 66.333 Q 174.061 65.76 173.083 65.76 L 173.083 65.76 L 173.083 65.76 Q 172.242 65.76 171.796 66.414 L 171.796 66.414 L 171.796 66.414 Q 171.35 67.067 171.35 68.258 L 171.35 68.258 L 171.35 68.258 Q 171.35 69.467 171.793 70.082 L 171.793 70.082 L 171.793 70.082 Q 172.237 70.698 173.094 70.698 Z  M 183.378 68.223 L 183.378 68.223 L 183.378 68.223 Q 183.378 69.766 182.601 70.632 L 182.601 70.632 L 182.601 70.632 Q 181.824 71.498 180.454 71.498 L 180.454 71.498 L 180.454 71.498 Q 179.608 71.498 178.952 71.101 L 178.952 71.101 L 178.952 71.101 Q 178.296 70.704 177.94 69.961 L 177.94 69.961 L 177.94 69.961 Q 177.583 69.219 177.583 68.223 L 177.583 68.223 L 177.583 68.223 Q 177.583 66.681 178.354 65.821 L 178.354 65.821 L 178.354 65.821 Q 179.125 64.961 180.495 64.961 L 180.495 64.961 L 180.495 64.961 Q 181.818 64.961 182.598 65.841 L 182.598 65.841 L 182.598 65.841 Q 183.378 66.722 183.378 68.223 Z  M 178.573 68.223 L 178.573 68.223 L 178.573 68.223 Q 178.573 69.432 179.056 70.065 L 179.056 70.065 L 179.056 70.065 Q 179.539 70.698 180.477 70.698 L 180.477 70.698 L 180.477 70.698 Q 181.415 70.698 181.902 70.068 L 181.902 70.068 L 181.902 70.068 Q 182.388 69.438 182.388 68.223 L 182.388 68.223 L 182.388 68.223 Q 182.388 67.021 181.902 66.396 L 181.902 66.396 L 181.902 66.396 Q 181.415 65.772 180.466 65.772 L 180.466 65.772 L 180.466 65.772 Q 179.528 65.772 179.05 66.388 L 179.05 66.388 L 179.05 66.388 Q 178.573 67.003 178.573 68.223 Z  M 189.121 69.662 L 189.121 69.662 L 189.121 69.662 Q 189.121 70.543 188.465 71.02 L 188.465 71.02 L 188.465 71.02 Q 187.809 71.498 186.623 71.498 L 186.623 71.498 L 186.623 71.498 Q 185.369 71.498 184.667 71.101 L 184.667 71.101 L 184.667 70.215 L 184.667 70.215 Q 185.121 70.445 185.642 70.577 L 185.642 70.577 L 185.642 70.577 Q 186.163 70.71 186.646 70.71 L 186.646 70.71 L 186.646 70.71 Q 187.395 70.71 187.797 70.471 L 187.797 70.471 L 187.797 70.471 Q 188.2 70.232 188.2 69.743 L 188.2 69.743 L 188.2 69.743 Q 188.2 69.374 187.881 69.113 L 187.881 69.113 L 187.881 69.113 Q 187.561 68.851 186.635 68.494 L 186.635 68.494 L 186.635 68.494 Q 185.754 68.166 185.383 67.921 L 185.383 67.921 L 185.383 67.921 Q 185.012 67.677 184.831 67.366 L 184.831 67.366 L 184.831 67.366 Q 184.65 67.055 184.65 66.624 L 184.65 66.624 L 184.65 66.624 Q 184.65 65.853 185.277 65.407 L 185.277 65.407 L 185.277 65.407 Q 185.904 64.961 186.997 64.961 L 186.997 64.961 L 186.997 64.961 Q 188.016 64.961 188.989 65.375 L 188.989 65.375 L 188.649 66.152 L 188.649 66.152 Q 187.7 65.76 186.928 65.76 L 186.928 65.76 L 186.928 65.76 Q 186.249 65.76 185.904 65.973 L 185.904 65.973 L 185.904 65.973 Q 185.559 66.186 185.559 66.56 L 185.559 66.56 L 185.559 66.56 Q 185.559 66.814 185.688 66.992 L 185.688 66.992 L 185.688 66.992 Q 185.818 67.17 186.106 67.332 L 186.106 67.332 L 186.106 67.332 Q 186.393 67.493 187.21 67.798 L 187.21 67.798 L 187.21 67.798 Q 188.333 68.206 188.727 68.621 L 188.727 68.621 L 188.727 68.621 Q 189.121 69.035 189.121 69.662 Z  M 117.285 71.383 L 117.158 70.537 L 117.106 70.537 L 117.106 70.537 Q 116.444 71.498 115.126 71.498 L 115.126 71.498 L 115.126 71.498 Q 113.889 71.498 113.202 70.652 L 113.202 70.652 L 113.202 70.652 Q 112.514 69.806 112.514 68.247 L 112.514 68.247 L 112.514 68.247 Q 112.514 66.687 113.204 65.824 L 113.204 65.824 L 113.204 65.824 Q 113.895 64.961 115.126 64.961 L 115.126 64.961 L 115.126 64.961 Q 116.41 64.961 117.095 65.893 L 117.095 65.893 L 117.169 65.893 L 117.129 65.438 L 117.106 64.995 L 117.106 62.428 L 118.061 62.428 L 118.061 71.383 L 117.285 71.383 Z  M 115.247 70.698 L 115.247 70.698 L 115.247 70.698 Q 116.226 70.698 116.666 70.166 L 116.666 70.166 L 116.666 70.166 Q 117.106 69.633 117.106 68.448 L 117.106 68.448 L 117.106 68.247 L 117.106 68.247 Q 117.106 66.906 116.66 66.333 L 116.66 66.333 L 116.66 66.333 Q 116.214 65.76 115.236 65.76 L 115.236 65.76 L 115.236 65.76 Q 114.396 65.76 113.95 66.414 L 113.95 66.414 L 113.95 66.414 Q 113.504 67.067 113.504 68.258 L 113.504 68.258 L 113.504 68.258 Q 113.504 69.467 113.947 70.082 L 113.947 70.082 L 113.947 70.082 Q 114.39 70.698 115.247 70.698 Z  M 122.752 71.498 L 122.752 71.498 L 122.752 71.498 Q 121.353 71.498 120.545 70.646 L 120.545 70.646 L 120.545 70.646 Q 119.736 69.795 119.736 68.281 L 119.736 68.281 L 119.736 68.281 Q 119.736 66.756 120.487 65.858 L 120.487 65.858 L 120.487 65.858 Q 121.238 64.961 122.504 64.961 L 122.504 64.961 L 122.504 64.961 Q 123.69 64.961 124.38 65.74 L 124.38 65.74 L 124.38 65.74 Q 125.071 66.52 125.071 67.798 L 125.071 67.798 L 125.071 68.402 L 120.726 68.402 L 120.726 68.402 Q 120.755 69.513 121.287 70.088 L 121.287 70.088 L 121.287 70.088 Q 121.819 70.664 122.786 70.664 L 122.786 70.664 L 122.786 70.664 Q 123.805 70.664 124.8 70.238 L 124.8 70.238 L 124.8 71.089 L 124.8 71.089 Q 124.294 71.308 123.842 71.403 L 123.842 71.403 L 123.842 71.403 Q 123.39 71.498 122.752 71.498 Z  M 122.493 65.76 L 122.493 65.76 L 122.493 65.76 Q 121.733 65.76 121.281 66.255 L 121.281 66.255 L 121.281 66.255 Q 120.829 66.75 120.749 67.625 L 120.749 67.625 L 124.046 67.625 L 124.046 67.625 Q 124.046 66.722 123.644 66.241 L 123.644 66.241 L 123.644 66.241 Q 123.241 65.76 122.493 65.76 Z  M 72.599 65.076 L 74.78 65.076 L 74.78 65.68 L 73.612 65.818 L 73.612 65.818 Q 73.773 66.019 73.9 66.345 L 73.9 66.345 L 73.9 66.345 Q 74.026 66.67 74.026 67.078 L 74.026 67.078 L 74.026 67.078 Q 74.026 68.005 73.393 68.557 L 73.393 68.557 L 73.393 68.557 Q 72.76 69.11 71.655 69.11 L 71.655 69.11 L 71.655 69.11 Q 71.373 69.11 71.126 69.064 L 71.126 69.064 L 71.126 69.064 Q 70.516 69.386 70.516 69.875 L 70.516 69.875 L 70.516 69.875 Q 70.516 70.134 70.729 70.258 L 70.729 70.258 L 70.729 70.258 Q 70.942 70.382 71.46 70.382 L 71.46 70.382 L 72.576 70.382 L 72.576 70.382 Q 73.6 70.382 74.15 70.813 L 74.15 70.813 L 74.15 70.813 Q 74.699 71.245 74.699 72.068 L 74.699 72.068 L 74.699 72.068 Q 74.699 73.115 73.859 73.665 L 73.859 73.665 L 73.859 73.665 Q 73.019 74.214 71.408 74.214 L 71.408 74.214 L 71.408 74.214 Q 70.17 74.214 69.5 73.754 L 69.5 73.754 L 69.5 73.754 Q 68.83 73.293 68.83 72.453 L 68.83 72.453 L 68.83 72.453 Q 68.83 71.878 69.198 71.458 L 69.198 71.458 L 69.198 71.458 Q 69.566 71.038 70.234 70.888 L 70.234 70.888 L 70.234 70.888 Q 69.992 70.779 69.828 70.548 L 69.828 70.548 L 69.828 70.548 Q 69.664 70.318 69.664 70.013 L 69.664 70.013 L 69.664 70.013 Q 69.664 69.668 69.848 69.409 L 69.848 69.409 L 69.848 69.409 Q 70.032 69.15 70.429 68.908 L 70.429 68.908 L 70.429 68.908 Q 69.94 68.707 69.632 68.223 L 69.632 68.223 L 69.632 68.223 Q 69.324 67.74 69.324 67.119 L 69.324 67.119 L 69.324 67.119 Q 69.324 66.083 69.946 65.522 L 69.946 65.522 L 69.946 65.522 Q 70.568 64.961 71.707 64.961 L 71.707 64.961 L 71.707 64.961 Q 72.202 64.961 72.599 65.076 L 72.599 65.076 Z  M 69.75 72.442 L 69.75 72.442 L 69.75 72.442 Q 69.75 72.954 70.182 73.219 L 70.182 73.219 L 70.182 73.219 Q 70.614 73.483 71.419 73.483 L 71.419 73.483 L 71.419 73.483 Q 72.622 73.483 73.2 73.124 L 73.2 73.124 L 73.2 73.124 Q 73.779 72.764 73.779 72.148 L 73.779 72.148 L 73.779 72.148 Q 73.779 71.636 73.462 71.438 L 73.462 71.438 L 73.462 71.438 Q 73.146 71.239 72.271 71.239 L 72.271 71.239 L 71.126 71.239 L 71.126 71.239 Q 70.475 71.239 70.113 71.55 L 70.113 71.55 L 70.113 71.55 Q 69.75 71.86 69.75 72.442 Z  M 70.268 67.096 L 70.268 67.096 L 70.268 67.096 Q 70.268 67.757 70.642 68.097 L 70.642 68.097 L 70.642 68.097 Q 71.016 68.436 71.684 68.436 L 71.684 68.436 L 71.684 68.436 Q 73.082 68.436 73.082 67.078 L 73.082 67.078 L 73.082 67.078 Q 73.082 65.657 71.667 65.657 L 71.667 65.657 L 71.667 65.657 Q 70.993 65.657 70.631 66.019 L 70.631 66.019 L 70.631 66.019 Q 70.268 66.382 70.268 67.096 Z  M 78.739 71.498 L 78.739 71.498 L 78.739 71.498 Q 77.341 71.498 76.532 70.646 L 76.532 70.646 L 76.532 70.646 Q 75.724 69.795 75.724 68.281 L 75.724 68.281 L 75.724 68.281 Q 75.724 66.756 76.475 65.858 L 76.475 65.858 L 76.475 65.858 Q 77.226 64.961 78.492 64.961 L 78.492 64.961 L 78.492 64.961 Q 79.677 64.961 80.368 65.74 L 80.368 65.74 L 80.368 65.74 Q 81.058 66.52 81.058 67.798 L 81.058 67.798 L 81.058 68.402 L 76.714 68.402 L 76.714 68.402 Q 76.742 69.513 77.275 70.088 L 77.275 70.088 L 77.275 70.088 Q 77.807 70.664 78.774 70.664 L 78.774 70.664 L 78.774 70.664 Q 79.792 70.664 80.788 70.238 L 80.788 70.238 L 80.788 71.089 L 80.788 71.089 Q 80.282 71.308 79.83 71.403 L 79.83 71.403 L 79.83 71.403 Q 79.378 71.498 78.739 71.498 Z  M 78.48 65.76 L 78.48 65.76 L 78.48 65.76 Q 77.721 65.76 77.269 66.255 L 77.269 66.255 L 77.269 66.255 Q 76.817 66.75 76.737 67.625 L 76.737 67.625 L 80.034 67.625 L 80.034 67.625 Q 80.034 66.722 79.631 66.241 L 79.631 66.241 L 79.631 66.241 Q 79.228 65.76 78.48 65.76 Z  M 86.756 69.662 L 86.756 69.662 L 86.756 69.662 Q 86.756 70.543 86.1 71.02 L 86.1 71.02 L 86.1 71.02 Q 85.444 71.498 84.258 71.498 L 84.258 71.498 L 84.258 71.498 Q 83.004 71.498 82.301 71.101 L 82.301 71.101 L 82.301 70.215 L 82.301 70.215 Q 82.756 70.445 83.277 70.577 L 83.277 70.577 L 83.277 70.577 Q 83.798 70.71 84.281 70.71 L 84.281 70.71 L 84.281 70.71 Q 85.029 70.71 85.432 70.471 L 85.432 70.471 L 85.432 70.471 Q 85.835 70.232 85.835 69.743 L 85.835 69.743 L 85.835 69.743 Q 85.835 69.374 85.515 69.113 L 85.515 69.113 L 85.515 69.113 Q 85.196 68.851 84.27 68.494 L 84.27 68.494 L 84.27 68.494 Q 83.389 68.166 83.018 67.921 L 83.018 67.921 L 83.018 67.921 Q 82.647 67.677 82.465 67.366 L 82.465 67.366 L 82.465 67.366 Q 82.284 67.055 82.284 66.624 L 82.284 66.624 L 82.284 66.624 Q 82.284 65.853 82.911 65.407 L 82.911 65.407 L 82.911 65.407 Q 83.539 64.961 84.632 64.961 L 84.632 64.961 L 84.632 64.961 Q 85.651 64.961 86.623 65.375 L 86.623 65.375 L 86.284 66.152 L 86.284 66.152 Q 85.334 65.76 84.563 65.76 L 84.563 65.76 L 84.563 65.76 Q 83.884 65.76 83.539 65.973 L 83.539 65.973 L 83.539 65.973 Q 83.193 66.186 83.193 66.56 L 83.193 66.56 L 83.193 66.56 Q 83.193 66.814 83.323 66.992 L 83.323 66.992 L 83.323 66.992 Q 83.452 67.17 83.74 67.332 L 83.74 67.332 L 83.74 67.332 Q 84.028 67.493 84.845 67.798 L 84.845 67.798 L 84.845 67.798 Q 85.967 68.206 86.361 68.621 L 86.361 68.621 L 86.361 68.621 Q 86.756 69.035 86.756 69.662 Z  M 90.347 70.71 L 90.347 70.71 L 90.347 70.71 Q 90.6 70.71 90.836 70.672 L 90.836 70.672 L 90.836 70.672 Q 91.072 70.635 91.21 70.594 L 91.21 70.594 L 91.21 71.325 L 91.21 71.325 Q 91.054 71.4 90.752 71.449 L 90.752 71.449 L 90.752 71.449 Q 90.45 71.498 90.208 71.498 L 90.208 71.498 L 90.208 71.498 Q 88.378 71.498 88.378 69.57 L 88.378 69.57 L 88.378 65.818 L 87.475 65.818 L 87.475 65.358 L 88.378 64.961 L 88.781 63.614 L 89.334 63.614 L 89.334 65.076 L 91.164 65.076 L 91.164 65.818 L 89.334 65.818 L 89.334 69.53 L 89.334 69.53 Q 89.334 70.1 89.604 70.405 L 89.604 70.405 L 89.604 70.405 Q 89.875 70.71 90.347 70.71 Z  M 93.425 65.076 L 93.425 71.383 L 92.47 71.383 L 92.47 65.076 L 93.425 65.076 Z  M 92.39 63.366 L 92.39 63.366 L 92.39 63.366 Q 92.39 63.038 92.551 62.886 L 92.551 62.886 L 92.551 62.886 Q 92.712 62.733 92.953 62.733 L 92.953 62.733 L 92.953 62.733 Q 93.184 62.733 93.351 62.889 L 93.351 62.889 L 93.351 62.889 Q 93.517 63.044 93.517 63.366 L 93.517 63.366 L 93.517 63.366 Q 93.517 63.689 93.351 63.847 L 93.351 63.847 L 93.351 63.847 Q 93.184 64.005 92.953 64.005 L 92.953 64.005 L 92.953 64.005 Q 92.712 64.005 92.551 63.847 L 92.551 63.847 L 92.551 63.847 Q 92.39 63.689 92.39 63.366 Z  M 100.895 68.223 L 100.895 68.223 L 100.895 68.223 Q 100.895 69.766 100.118 70.632 L 100.118 70.632 L 100.118 70.632 Q 99.341 71.498 97.972 71.498 L 97.972 71.498 L 97.972 71.498 Q 97.126 71.498 96.47 71.101 L 96.47 71.101 L 96.47 71.101 Q 95.814 70.704 95.457 69.961 L 95.457 69.961 L 95.457 69.961 Q 95.1 69.219 95.1 68.223 L 95.1 68.223 L 95.1 68.223 Q 95.1 66.681 95.871 65.821 L 95.871 65.821 L 95.871 65.821 Q 96.642 64.961 98.012 64.961 L 98.012 64.961 L 98.012 64.961 Q 99.335 64.961 100.115 65.841 L 100.115 65.841 L 100.115 65.841 Q 100.895 66.722 100.895 68.223 Z  M 96.09 68.223 L 96.09 68.223 L 96.09 68.223 Q 96.09 69.432 96.573 70.065 L 96.573 70.065 L 96.573 70.065 Q 97.057 70.698 97.995 70.698 L 97.995 70.698 L 97.995 70.698 Q 98.933 70.698 99.419 70.068 L 99.419 70.068 L 99.419 70.068 Q 99.905 69.438 99.905 68.223 L 99.905 68.223 L 99.905 68.223 Q 99.905 67.021 99.419 66.396 L 99.419 66.396 L 99.419 66.396 Q 98.933 65.772 97.983 65.772 L 97.983 65.772 L 97.983 65.772 Q 97.045 65.772 96.567 66.388 L 96.567 66.388 L 96.567 66.388 Q 96.09 67.003 96.09 68.223 Z  M 97.195 64.241 L 97.195 64.097 L 97.195 64.097 Q 97.471 63.741 97.79 63.234 L 97.79 63.234 L 97.79 63.234 Q 98.11 62.728 98.294 62.354 L 98.294 62.354 L 99.456 62.354 L 99.456 62.475 L 99.456 62.475 Q 99.203 62.849 98.702 63.395 L 98.702 63.395 L 98.702 63.395 Q 98.202 63.942 97.833 64.241 L 97.833 64.241 L 97.195 64.241 Z  M 107.841 71.383 L 106.886 71.383 L 106.886 67.303 L 106.886 67.303 Q 106.886 66.532 106.535 66.152 L 106.535 66.152 L 106.535 66.152 Q 106.184 65.772 105.436 65.772 L 105.436 65.772 L 105.436 65.772 Q 104.446 65.772 103.985 66.307 L 103.985 66.307 L 103.985 66.307 Q 103.525 66.842 103.525 68.074 L 103.525 68.074 L 103.525 71.383 L 102.57 71.383 L 102.57 65.076 L 103.347 65.076 L 103.502 65.939 L 103.548 65.939 L 103.548 65.939 Q 103.841 65.473 104.371 65.217 L 104.371 65.217 L 104.371 65.217 Q 104.9 64.961 105.551 64.961 L 105.551 64.961 L 105.551 64.961 Q 106.69 64.961 107.266 65.51 L 107.266 65.51 L 107.266 65.51 Q 107.841 66.06 107.841 67.268 L 107.841 67.268 L 107.841 71.383 Z  M 57.142 71.383 L 57.015 70.537 L 56.963 70.537 L 56.963 70.537 Q 56.302 71.498 54.984 71.498 L 54.984 71.498 L 54.984 71.498 Q 53.746 71.498 53.059 70.652 L 53.059 70.652 L 53.059 70.652 Q 52.371 69.806 52.371 68.247 L 52.371 68.247 L 52.371 68.247 Q 52.371 66.687 53.062 65.824 L 53.062 65.824 L 53.062 65.824 Q 53.752 64.961 54.984 64.961 L 54.984 64.961 L 54.984 64.961 Q 56.267 64.961 56.952 65.893 L 56.952 65.893 L 57.027 65.893 L 56.986 65.438 L 56.963 64.995 L 56.963 62.428 L 57.919 62.428 L 57.919 71.383 L 57.142 71.383 Z  M 55.105 70.698 L 55.105 70.698 L 55.105 70.698 Q 56.083 70.698 56.523 70.166 L 56.523 70.166 L 56.523 70.166 Q 56.963 69.633 56.963 68.448 L 56.963 68.448 L 56.963 68.247 L 56.963 68.247 Q 56.963 66.906 56.517 66.333 L 56.517 66.333 L 56.517 66.333 Q 56.071 65.76 55.093 65.76 L 55.093 65.76 L 55.093 65.76 Q 54.253 65.76 53.807 66.414 L 53.807 66.414 L 53.807 66.414 Q 53.361 67.067 53.361 68.258 L 53.361 68.258 L 53.361 68.258 Q 53.361 69.467 53.804 70.082 L 53.804 70.082 L 53.804 70.082 Q 54.247 70.698 55.105 70.698 Z  M 62.609 71.498 L 62.609 71.498 L 62.609 71.498 Q 61.21 71.498 60.402 70.646 L 60.402 70.646 L 60.402 70.646 Q 59.593 69.795 59.593 68.281 L 59.593 68.281 L 59.593 68.281 Q 59.593 66.756 60.344 65.858 L 60.344 65.858 L 60.344 65.858 Q 61.095 64.961 62.361 64.961 L 62.361 64.961 L 62.361 64.961 Q 63.547 64.961 64.237 65.74 L 64.237 65.74 L 64.237 65.74 Q 64.928 66.52 64.928 67.798 L 64.928 67.798 L 64.928 68.402 L 60.583 68.402 L 60.583 68.402 Q 60.612 69.513 61.144 70.088 L 61.144 70.088 L 61.144 70.088 Q 61.676 70.664 62.643 70.664 L 62.643 70.664 L 62.643 70.664 Q 63.662 70.664 64.657 70.238 L 64.657 70.238 L 64.657 71.089 L 64.657 71.089 Q 64.151 71.308 63.699 71.403 L 63.699 71.403 L 63.699 71.403 Q 63.247 71.498 62.609 71.498 Z  M 62.35 65.76 L 62.35 65.76 L 62.35 65.76 Q 61.59 65.76 61.138 66.255 L 61.138 66.255 L 61.138 66.255 Q 60.687 66.75 60.606 67.625 L 60.606 67.625 L 63.904 67.625 L 63.904 67.625 Q 63.904 66.722 63.501 66.241 L 63.501 66.241 L 63.501 66.241 Q 63.098 65.76 62.35 65.76 Z  M 11.19 69.144 L 11.19 69.144 L 11.19 69.144 Q 11.19 70.255 10.384 70.876 L 10.384 70.876 L 10.384 70.876 Q 9.579 71.498 8.198 71.498 L 8.198 71.498 L 8.198 71.498 Q 6.701 71.498 5.896 71.112 L 5.896 71.112 L 5.896 70.169 L 5.896 70.169 Q 6.414 70.387 7.024 70.514 L 7.024 70.514 L 7.024 70.514 Q 7.634 70.64 8.232 70.64 L 8.232 70.64 L 8.232 70.64 Q 9.21 70.64 9.705 70.269 L 9.705 70.269 L 9.705 70.269 Q 10.2 69.898 10.2 69.236 L 10.2 69.236 L 10.2 69.236 Q 10.2 68.799 10.025 68.52 L 10.025 68.52 L 10.025 68.52 Q 9.849 68.241 9.438 68.005 L 9.438 68.005 L 9.438 68.005 Q 9.026 67.769 8.186 67.47 L 8.186 67.47 L 8.186 67.47 Q 7.012 67.05 6.509 66.474 L 6.509 66.474 L 6.509 66.474 Q 6.005 65.899 6.005 64.972 L 6.005 64.972 L 6.005 64.972 Q 6.005 64 6.736 63.424 L 6.736 63.424 L 6.736 63.424 Q 7.467 62.849 8.67 62.849 L 8.67 62.849 L 8.67 62.849 Q 9.924 62.849 10.977 63.309 L 10.977 63.309 L 10.672 64.161 L 10.672 64.161 Q 9.631 63.723 8.646 63.723 L 8.646 63.723 L 8.646 63.723 Q 7.87 63.723 7.432 64.057 L 7.432 64.057 L 7.432 64.057 Q 6.995 64.391 6.995 64.984 L 6.995 64.984 L 6.995 64.984 Q 6.995 65.421 7.156 65.7 L 7.156 65.7 L 7.156 65.7 Q 7.317 65.979 7.7 66.212 L 7.7 66.212 L 7.7 66.212 Q 8.083 66.445 8.871 66.727 L 8.871 66.727 L 8.871 66.727 Q 10.195 67.199 10.692 67.74 L 10.692 67.74 L 10.692 67.74 Q 11.19 68.281 11.19 69.144 Z  M 13.722 65.076 L 13.722 71.383 L 12.767 71.383 L 12.767 65.076 L 13.722 65.076 Z  M 12.686 63.366 L 12.686 63.366 L 12.686 63.366 Q 12.686 63.038 12.847 62.886 L 12.847 62.886 L 12.847 62.886 Q 13.009 62.733 13.25 62.733 L 13.25 62.733 L 13.25 62.733 Q 13.48 62.733 13.647 62.889 L 13.647 62.889 L 13.647 62.889 Q 13.814 63.044 13.814 63.366 L 13.814 63.366 L 13.814 63.366 Q 13.814 63.689 13.647 63.847 L 13.647 63.847 L 13.647 63.847 Q 13.48 64.005 13.25 64.005 L 13.25 64.005 L 13.25 64.005 Q 13.009 64.005 12.847 63.847 L 12.847 63.847 L 12.847 63.847 Q 12.686 63.689 12.686 63.366 Z  M 19.816 69.662 L 19.816 69.662 L 19.816 69.662 Q 19.816 70.543 19.16 71.02 L 19.16 71.02 L 19.16 71.02 Q 18.504 71.498 17.319 71.498 L 17.319 71.498 L 17.319 71.498 Q 16.064 71.498 15.362 71.101 L 15.362 71.101 L 15.362 70.215 L 15.362 70.215 Q 15.817 70.445 16.338 70.577 L 16.338 70.577 L 16.338 70.577 Q 16.859 70.71 17.342 70.71 L 17.342 70.71 L 17.342 70.71 Q 18.09 70.71 18.493 70.471 L 18.493 70.471 L 18.493 70.471 Q 18.896 70.232 18.896 69.743 L 18.896 69.743 L 18.896 69.743 Q 18.896 69.374 18.576 69.113 L 18.576 69.113 L 18.576 69.113 Q 18.257 68.851 17.33 68.494 L 17.33 68.494 L 17.33 68.494 Q 16.45 68.166 16.079 67.921 L 16.079 67.921 L 16.079 67.921 Q 15.708 67.677 15.526 67.366 L 15.526 67.366 L 15.526 67.366 Q 15.345 67.055 15.345 66.624 L 15.345 66.624 L 15.345 66.624 Q 15.345 65.853 15.972 65.407 L 15.972 65.407 L 15.972 65.407 Q 16.6 64.961 17.693 64.961 L 17.693 64.961 L 17.693 64.961 Q 18.712 64.961 19.684 65.375 L 19.684 65.375 L 19.345 66.152 L 19.345 66.152 Q 18.395 65.76 17.624 65.76 L 17.624 65.76 L 17.624 65.76 Q 16.945 65.76 16.6 65.973 L 16.6 65.973 L 16.6 65.973 Q 16.254 66.186 16.254 66.56 L 16.254 66.56 L 16.254 66.56 Q 16.254 66.814 16.384 66.992 L 16.384 66.992 L 16.384 66.992 Q 16.513 67.17 16.801 67.332 L 16.801 67.332 L 16.801 67.332 Q 17.089 67.493 17.906 67.798 L 17.906 67.798 L 17.906 67.798 Q 19.028 68.206 19.422 68.621 L 19.422 68.621 L 19.422 68.621 Q 19.816 69.035 19.816 69.662 Z  M 23.407 70.71 L 23.407 70.71 L 23.407 70.71 Q 23.661 70.71 23.897 70.672 L 23.897 70.672 L 23.897 70.672 Q 24.132 70.635 24.271 70.594 L 24.271 70.594 L 24.271 71.325 L 24.271 71.325 Q 24.115 71.4 23.813 71.449 L 23.813 71.449 L 23.813 71.449 Q 23.511 71.498 23.269 71.498 L 23.269 71.498 L 23.269 71.498 Q 21.439 71.498 21.439 69.57 L 21.439 69.57 L 21.439 65.818 L 20.536 65.818 L 20.536 65.358 L 21.439 64.961 L 21.842 63.614 L 22.395 63.614 L 22.395 65.076 L 24.225 65.076 L 24.225 65.818 L 22.395 65.818 L 22.395 69.53 L 22.395 69.53 Q 22.395 70.1 22.665 70.405 L 22.665 70.405 L 22.665 70.405 Q 22.936 70.71 23.407 70.71 Z  M 28.195 71.498 L 28.195 71.498 L 28.195 71.498 Q 26.797 71.498 25.988 70.646 L 25.988 70.646 L 25.988 70.646 Q 25.18 69.795 25.18 68.281 L 25.18 68.281 L 25.18 68.281 Q 25.18 66.756 25.931 65.858 L 25.931 65.858 L 25.931 65.858 Q 26.682 64.961 27.948 64.961 L 27.948 64.961 L 27.948 64.961 Q 29.133 64.961 29.824 65.74 L 29.824 65.74 L 29.824 65.74 Q 30.515 66.52 30.515 67.798 L 30.515 67.798 L 30.515 68.402 L 26.17 68.402 L 26.17 68.402 Q 26.198 69.513 26.731 70.088 L 26.731 70.088 L 26.731 70.088 Q 27.263 70.664 28.23 70.664 L 28.23 70.664 L 28.23 70.664 Q 29.248 70.664 30.244 70.238 L 30.244 70.238 L 30.244 71.089 L 30.244 71.089 Q 29.738 71.308 29.286 71.403 L 29.286 71.403 L 29.286 71.403 Q 28.834 71.498 28.195 71.498 Z  M 27.936 65.76 L 27.936 65.76 L 27.936 65.76 Q 27.177 65.76 26.725 66.255 L 26.725 66.255 L 26.725 66.255 Q 26.273 66.75 26.193 67.625 L 26.193 67.625 L 29.49 67.625 L 29.49 67.625 Q 29.49 66.722 29.087 66.241 L 29.087 66.241 L 29.087 66.241 Q 28.685 65.76 27.936 65.76 Z  M 41.138 71.383 L 40.182 71.383 L 40.182 67.28 L 40.182 67.28 Q 40.182 66.526 39.86 66.149 L 39.86 66.149 L 39.86 66.149 Q 39.538 65.772 38.859 65.772 L 38.859 65.772 L 38.859 65.772 Q 37.967 65.772 37.541 66.284 L 37.541 66.284 L 37.541 66.284 Q 37.115 66.796 37.115 67.861 L 37.115 67.861 L 37.115 71.383 L 36.16 71.383 L 36.16 67.28 L 36.16 67.28 Q 36.16 66.526 35.838 66.149 L 35.838 66.149 L 35.838 66.149 Q 35.515 65.772 34.831 65.772 L 34.831 65.772 L 34.831 65.772 Q 33.933 65.772 33.516 66.31 L 33.516 66.31 L 33.516 66.31 Q 33.098 66.848 33.098 68.074 L 33.098 68.074 L 33.098 71.383 L 32.143 71.383 L 32.143 65.076 L 32.92 65.076 L 33.075 65.939 L 33.121 65.939 L 33.121 65.939 Q 33.392 65.478 33.884 65.22 L 33.884 65.22 L 33.884 65.22 Q 34.376 64.961 34.986 64.961 L 34.986 64.961 L 34.986 64.961 Q 36.465 64.961 36.92 66.031 L 36.92 66.031 L 36.966 66.031 L 36.966 66.031 Q 37.248 65.536 37.783 65.248 L 37.783 65.248 L 37.783 65.248 Q 38.318 64.961 39.003 64.961 L 39.003 64.961 L 39.003 64.961 Q 40.073 64.961 40.605 65.51 L 40.605 65.51 L 40.605 65.51 Q 41.138 66.06 41.138 67.268 L 41.138 67.268 L 41.138 71.383 Z  M 47.692 71.383 L 46.985 71.383 L 46.795 70.485 L 46.749 70.485 L 46.749 70.485 Q 46.277 71.078 45.808 71.288 L 45.808 71.288 L 45.808 71.288 Q 45.339 71.498 44.637 71.498 L 44.637 71.498 L 44.637 71.498 Q 43.699 71.498 43.166 71.015 L 43.166 71.015 L 43.166 71.015 Q 42.634 70.531 42.634 69.639 L 42.634 69.639 L 42.634 69.639 Q 42.634 67.729 45.69 67.637 L 45.69 67.637 L 46.76 67.602 L 46.76 67.211 L 46.76 67.211 Q 46.76 66.468 46.441 66.114 L 46.441 66.114 L 46.441 66.114 Q 46.121 65.76 45.419 65.76 L 45.419 65.76 L 45.419 65.76 Q 44.631 65.76 43.635 66.244 L 43.635 66.244 L 43.342 65.513 L 43.342 65.513 Q 43.808 65.26 44.363 65.116 L 44.363 65.116 L 44.363 65.116 Q 44.919 64.972 45.477 64.972 L 45.477 64.972 L 45.477 64.972 Q 46.605 64.972 47.149 65.473 L 47.149 65.473 L 47.149 65.473 Q 47.692 65.973 47.692 67.078 L 47.692 67.078 L 47.692 71.383 Z  M 44.827 70.71 L 44.827 70.71 L 44.827 70.71 Q 45.719 70.71 46.228 70.22 L 46.228 70.22 L 46.228 70.22 Q 46.737 69.731 46.737 68.851 L 46.737 68.851 L 46.737 68.281 L 45.782 68.321 L 45.782 68.321 Q 44.642 68.362 44.139 68.675 L 44.139 68.675 L 44.139 68.675 Q 43.635 68.989 43.635 69.651 L 43.635 69.651 L 43.635 69.651 Q 43.635 70.169 43.949 70.439 L 43.949 70.439 L 43.949 70.439 Q 44.263 70.71 44.827 70.71 Z " fill-rule="evenodd" fill="rgb(255,0,0)"/><line x1="8" y1="53.786" x2="189" y2="53.786" vector-effect="non-scaling-stroke" stroke-width="1" stroke="rgb(0,0,0)" stroke-linejoin="miter" stroke-linecap="square" stroke-miterlimit="3"/></g></svg>