<svg xmlns="http://www.w3.org/2000/svg" style="isolation:isolate" width="200" height="100"><defs><clipPath id="a"><path d="M0 0h200v100H0z"/></clipPath></defs><g clip-path="url(#a)"><path d="M118.26 31.131q0-5.181 2.923-8.569 2.923-3.388 7.54-3.388 4.019 0 7.274 2.823.531.432.531-.332v-1.66q0-.499.498-.499.499 0 .499.499v6.31q0 .499-.499.499-.498 0-.498-.499V23.99q-.897-1.029-2.092-1.893-2.724-1.926-5.713-1.926-4.086 0-6.776 3.138-2.69 3.139-2.69 7.872 0 4.733 2.79 7.822 2.79 3.089 7.44 3.089t7.506-3.022q.332-.333.598-.067.266.266.266.432 0 .166-.166.332-3.388 3.322-8.354 3.322-4.965 0-8.021-3.388-3.056-3.388-3.056-8.57zm23.184 10.629h2.325q.498 0 .498-.498V21.001q0-.498-.498-.498h-2.325q-.498 0-.498-.498 0-.499.498-.499h3.654q.597 0 .83.499l9.3 20.592q.332.665.664 0l9.3-20.592q.233-.499.831-.499h3.653q.498 0 .498.499 0 .498-.498.498h-2.325q-.498 0-.498.498v20.261q0 .498.498.498h2.325q.498 0 .498.498t-.498.498h-6.311q-.498 0-.498-.498t.498-.498h1.993q.498 0 .498-.498V21.831q0-.332-.132-.265-.067 0-.133.099l-9.3 20.593q-.266.498-.731.498-.465 0-.731-.498l-9.3-20.593q-.133-.199-.199-.099-.066.099-.066.265v19.431q0 .498.498.498h1.993q.498 0 .498.498t-.498.498h-6.311q-.498 0-.498-.498t.498-.498zm35.705-1.495q2.79 1.827 6.128 1.827t5.182-1.478q1.843-1.478 1.843-3.836 0-1.296-.797-2.259-.797-.963-1.993-1.494-1.328-.598-5.148-1.644-3.82-1.047-5.265-1.761-1.444-.714-2.258-1.81-.814-1.096-.814-2.524 0-2.79 1.827-4.451 1.827-1.661 5.812-1.661 3.953 0 7.274 2.823.532.432.532-.332v-1.66q0-.499.498-.499t.498.499v6.31q0 .499-.498.499t-.498-.499V23.99q-1.827-2.092-4.551-3.221-1.461-.598-3.255-.598-3.387 0-5.015 1.395-1.627 1.395-1.627 3.421 0 1.295.797 2.258.797.964 1.993 1.495 1.328.598 5.148 1.644 3.819 1.046 5.264 1.76 1.445.715 2.259 1.811.814 1.096.814 2.624 0 2.989-2.093 4.749-2.092 1.761-6.211 1.761t-7.44-2.824q-.531-.431-.531.332v1.661q0 .498-.499.498-.498 0-.498-.498v-6.311q0-.498.498-.498.499 0 .499.498v2.492q.896 1.029 2.125 1.826zM18.551 30.334q4.816.93 4.816 6.377 0 2.658-1.644 4.352-1.644 1.693-4.667 1.693H5.597q-.498 0-.498-.498t.498-.498h2.326q.498 0 .498-.498V21.001q0-.498-.498-.498H5.597q-.498 0-.498-.498 0-.499.498-.499h10.131q2.657 0 4.318 1.661 1.66 1.661 1.66 4.152 0 3.521-3.155 5.015zm-9.134-9.333v8.636q0 .498.498.498h5.979q2.092 0 3.454-1.412 1.362-1.411 1.362-3.47 0-2.06-1.345-3.405-1.345-1.345-3.637-1.345H9.915q-.498 0-.498.498zm0 10.629v9.632q0 .498.498.498h7.141q2.492 0 3.903-1.412 1.412-1.411 1.412-3.902t-1.412-3.903q-1.411-1.412-3.903-1.412H9.915q-.498 0-.498.499zm29.76 5.978v-2.989q0-.498-.498-.498h-5.48q-2.89 0-4.268 1.129-1.379 1.129-1.379 2.873 0 1.744 1.279 2.856 1.279 1.113 3.869 1.113 3.222 0 5.68-3.255.432-.565.797-1.229zm-5.181-11.791q2.79 0 4.484 1.578 1.694 1.577 1.694 3.903v9.964q0 .498.498.498h2.325q.498 0 .498.498t-.498.498h-3.322q-.498 0-.498-.498v-1.86q0-.332-.133-.465t-.398.133q-.897 1.129-2.491 2.076-1.595.947-3.322.947-3.089 0-4.683-1.379-1.594-1.378-1.594-3.57 0-2.193 1.826-3.604 1.827-1.412 4.817-1.412h5.48q.498 0 .498-.498v-1.328q0-1.927-1.461-3.206-1.462-1.278-3.587-1.278-2.126 0-3.488.581t-1.91 1.013q-.548.432-.83.033-.282-.399.083-.664 2.391-1.96 6.012-1.96zm24.645.997h-.631q-4.185 0-6.975 3.288-.798.93-1.329 1.86v9.3q0 .498.498.498h2.657q.499 0 .499.498t-.499.498h-6.975q-.498 0-.498-.498t.498-.498h2.325q.499 0 .499-.498V27.644q0-.498-.499-.498h-2.325q-.498 0-.498-.499 0-.498.498-.498h3.322q.498 0 .498.498v2.624q0 .831.698.034 1.228-1.395 3.205-2.442 1.976-1.046 4.401-1.046h1.627q.498 0 .498.498v4.152q0 .498-.498.498t-.498-.498v-3.155q0-.498-.498-.498zm16.839 0h-.631q-4.185 0-6.975 3.288-.797.93-1.328 1.86v9.3q0 .498.498.498h2.657q.498 0 .498.498t-.498.498h-6.975q-.498 0-.498-.498t.498-.498h2.325q.498 0 .498-.498V27.644q0-.498-.498-.498h-2.325q-.498 0-.498-.499 0-.498.498-.498h3.322q.498 0 .498.498v2.624q0 .831.697.034 1.229-1.395 3.205-2.442 1.977-1.046 4.401-1.046h1.628q.498 0 .498.498v4.152q0 .498-.498.498t-.498-.498v-3.155q0-.498-.499-.498zm4.119 15.942q-.498 0-.498-.498t.498-.498h2.325q.498 0 .498-.498V27.644q0-.498-.498-.498h-2.325q-.498 0-.498-.499 0-.498.498-.498h3.321q.499 0 .499.498v14.615q0 .498.498.498h2.325q.498 0 .498.498t-.498.498h-6.643zm2.209-19.646q-.382-.382-.382-.946 0-.565.382-.947t.946-.382q.565 0 .947.382t.382.947q0 .564-.382.946t-.947.382q-.564 0-.946-.382zm9.516 17.587q-2.259-2.391-2.259-6.244 0-3.853 2.259-6.244 2.258-2.392 5.878-2.392 3.621 0 5.879 2.392 2.259 2.391 2.259 6.244 0 3.853-2.259 6.244-2.258 2.392-5.879 2.392-3.62 0-5.878-2.392zm5.878-13.883q-3.221 0-5.181 2.092-1.96 2.093-1.96 5.563 0 3.471 1.943 5.547 1.944 2.076 5.198 2.076 3.255 0 5.199-2.076 1.943-2.076 1.943-5.547 0-3.47-1.96-5.563-1.96-2.092-5.182-2.092z" fill-rule="evenodd" fill="#f8f9fa"/><path d="M132.281 71.498q-1.369 0-2.12-.843-.751-.843-.751-2.385 0-1.583.762-2.446.763-.863 2.173-.863.454 0 .909.097.455.098.714.231l-.294.811q-.316-.127-.691-.21-.374-.083-.661-.083-1.922 0-1.922 2.451 0 1.162.469 1.784.469.622 1.389.622.789 0 1.617-.34v.846q-.633.328-1.594.328zm8.535-3.275q0 1.543-.777 2.409-.777.866-2.147.866-.846 0-1.502-.397t-1.013-1.14q-.356-.742-.356-1.738 0-1.542.771-2.402.771-.86 2.141-.86 1.323 0 2.103.88.78.881.78 2.382zm-4.806 0q0 1.209.484 1.842.483.633 1.421.633.938 0 1.425-.63.486-.63.486-1.845 0-1.202-.486-1.827-.487-.624-1.436-.624-.938 0-1.416.616-.478.615-.478 1.835zm11.752 3.16h-.956v-4.08q0-.771-.351-1.151t-1.099-.38q-.99 0-1.45.535-.46.535-.46 1.767v3.309h-.956v-6.307h.777l.156.863h.046q.293-.466.823-.722.529-.256 1.179-.256 1.14 0 1.715.549.576.55.576 1.758v4.115zm3.999-.673q.253 0 .489-.038.236-.037.374-.078v.731q-.155.075-.457.124-.302.049-.544.049-1.83 0-1.83-1.928v-3.752h-.903v-.46l.903-.397.403-1.347h.552v1.462h1.83v.742h-1.83v3.712q0 .57.271.875.27.305.742.305zm4.788.788q-1.398 0-2.207-.852-.808-.851-.808-2.365 0-1.525.751-2.423.751-.897 2.017-.897 1.185 0 1.876.779.69.78.69 2.058v.604h-4.345q.029 1.111.562 1.686.532.576 1.499.576 1.018 0 2.014-.426v.851q-.507.219-.958.314-.452.095-1.091.095zm-.259-5.738q-.759 0-1.211.495-.452.495-.533 1.37h3.298q0-.903-.403-1.384-.403-.481-1.151-.481zm9.478 5.623h-.955v-4.08q0-.771-.351-1.151t-1.099-.38q-.99 0-1.45.535-.461.535-.461 1.767v3.309h-.955v-6.307h.777l.155.863h.046q.294-.466.823-.722.53-.256 1.18-.256 1.139 0 1.715.549.575.55.575 1.758v4.115zm2.918-6.307v6.307h-.955v-6.307h.955zm-1.036-1.71q0-.328.161-.48.161-.153.403-.153.23 0 .397.156.167.155.167.477 0 .323-.167.481-.167.158-.397.158-.242 0-.403-.158-.161-.158-.161-.481zm7.481 8.017l-.126-.846h-.052q-.662.961-1.98.961-1.237 0-1.925-.846-.687-.846-.687-2.405 0-1.56.69-2.423.691-.863 1.922-.863 1.283 0 1.968.932h.075l-.04-.455-.023-.443v-2.567h.955v8.955h-.777zm-2.037-.685q.978 0 1.419-.532.44-.533.44-1.718v-.201q0-1.341-.446-1.914t-1.424-.573q-.841 0-1.287.654-.446.653-.446 1.844 0 1.209.443 1.824.444.616 1.301.616zm10.284-2.475q0 1.543-.777 2.409-.777.866-2.147.866-.846 0-1.502-.397t-1.012-1.14q-.357-.742-.357-1.738 0-1.542.771-2.402.771-.86 2.141-.86 1.323 0 2.103.88.78.881.78 2.382zm-4.805 0q0 1.209.483 1.842t1.421.633q.938 0 1.425-.63.486-.63.486-1.845 0-1.202-.486-1.827-.487-.624-1.436-.624-.938 0-1.416.616-.477.615-.477 1.835zm10.548 1.439q0 .881-.656 1.358-.656.478-1.842.478-1.254 0-1.956-.397v-.886q.454.23.975.362.521.133 1.004.133.749 0 1.151-.239.403-.239.403-.728 0-.369-.319-.63-.32-.262-1.246-.619-.881-.328-1.252-.573-.371-.244-.552-.555-.181-.311-.181-.742 0-.771.627-1.217.627-.446 1.72-.446 1.019 0 1.992.414l-.34.777q-.949-.392-1.721-.392-.679 0-1.024.213t-.345.587q0 .254.129.432.13.178.418.34.287.161 1.104.466 1.123.408 1.517.823.394.414.394 1.041zm-71.836 1.721l-.127-.846h-.052q-.662.961-1.98.961-1.237 0-1.924-.846-.688-.846-.688-2.405 0-1.56.69-2.423.691-.863 1.922-.863 1.284 0 1.969.932h.074l-.04-.455-.023-.443v-2.567h.955v8.955h-.776zm-2.038-.685q.979 0 1.419-.532.44-.533.44-1.718v-.201q0-1.341-.446-1.914t-1.424-.573q-.84 0-1.286.654-.446.653-.446 1.844 0 1.209.443 1.824.443.616 1.3.616zm7.505.8q-1.399 0-2.207-.852-.809-.851-.809-2.365 0-1.525.751-2.423.751-.897 2.017-.897 1.186 0 1.876.779.691.78.691 2.058v.604h-4.345q.029 1.111.561 1.686.532.576 1.499.576 1.019 0 2.014-.426v.851q-.506.219-.958.314-.452.095-1.09.095zm-.259-5.738q-.76 0-1.212.495-.452.495-.532 1.37h3.297q0-.903-.402-1.384-.403-.481-1.151-.481zm-49.894-.684h2.181v.604l-1.168.138q.161.201.288.527.126.325.126.733 0 .927-.633 1.479-.633.553-1.738.553-.282 0-.529-.046-.61.322-.61.811 0 .259.213.383t.731.124h1.116q1.024 0 1.574.431.549.432.549 1.255 0 1.047-.84 1.597-.84.549-2.451.549-1.238 0-1.908-.46-.67-.461-.67-1.301 0-.575.368-.995.368-.42 1.036-.57-.242-.109-.406-.34-.164-.23-.164-.535 0-.345.184-.604t.581-.501q-.489-.201-.797-.685-.308-.483-.308-1.104 0-1.036.622-1.597.622-.561 1.761-.561.495 0 .892.115zm-2.849 7.366q0 .512.432.777.432.264 1.237.264 1.203 0 1.781-.359.579-.36.579-.976 0-.512-.317-.71-.316-.199-1.191-.199h-1.145q-.651 0-1.013.311-.363.31-.363.892zm.518-5.346q0 .661.374 1.001.374.339 1.042.339 1.398 0 1.398-1.358 0-1.421-1.415-1.421-.674 0-1.036.362-.363.363-.363 1.077zm8.471 4.402q-1.398 0-2.207-.852-.808-.851-.808-2.365 0-1.525.751-2.423.751-.897 2.017-.897 1.185 0 1.876.779.69.78.69 2.058v.604h-4.344q.028 1.111.561 1.686.532.576 1.499.576 1.018 0 2.014-.426v.851q-.506.219-.958.314-.452.095-1.091.095zm-.259-5.738q-.759 0-1.211.495-.452.495-.532 1.37h3.297q0-.903-.403-1.384-.403-.481-1.151-.481zm8.276 3.902q0 .881-.656 1.358-.656.478-1.842.478-1.254 0-1.957-.397v-.886q.455.23.976.362.521.133 1.004.133.748 0 1.151-.239t.403-.728q0-.369-.32-.63-.319-.262-1.245-.619-.881-.328-1.252-.573-.371-.244-.553-.555-.181-.311-.181-.742 0-.771.627-1.217.628-.446 1.721-.446 1.019 0 1.991.414l-.339.777q-.95-.392-1.721-.392-.679 0-1.024.213-.346.213-.346.587 0 .254.13.432.129.178.417.34.288.161 1.105.466 1.122.408 1.516.823.395.414.395 1.041zm3.591 1.048q.253 0 .489-.038.236-.037.374-.078v.731q-.156.075-.458.124-.302.049-.544.049-1.83 0-1.83-1.928v-3.752h-.903v-.46l.903-.397.403-1.347h.553v1.462h1.83v.742h-1.83v3.712q0 .57.27.875.271.305.743.305zm3.078-5.634v6.307h-.955v-6.307h.955zm-1.035-1.71q0-.328.161-.48.161-.153.402-.153.231 0 .398.156.166.155.166.477 0 .323-.166.481-.167.158-.398.158-.241 0-.402-.158-.161-.158-.161-.481zm8.505 4.857q0 1.543-.777 2.409-.777.866-2.146.866-.846 0-1.502-.397t-1.013-1.14q-.357-.742-.357-1.738 0-1.542.771-2.402.771-.86 2.141-.86 1.323 0 2.103.88.78.881.78 2.382zm-4.805 0q0 1.209.483 1.842.484.633 1.422.633t1.424-.63q.486-.63.486-1.845 0-1.202-.486-1.827-.486-.624-1.436-.624-.938 0-1.416.616-.477.615-.477 1.835zm1.105-3.982v-.144q.276-.356.595-.863.32-.506.504-.88h1.162v.121q-.253.374-.754.92-.5.547-.869.846h-.638zm10.646 7.142h-.955v-4.08q0-.771-.351-1.151t-1.099-.38q-.99 0-1.451.535-.46.535-.46 1.767v3.309h-.955v-6.307h.777l.155.863h.046q.293-.466.823-.722.529-.256 1.18-.256 1.139 0 1.715.549.575.55.575 1.758v4.115zm-50.699 0l-.127-.846h-.052q-.661.961-1.979.961-1.238 0-1.925-.846-.688-.846-.688-2.405 0-1.56.691-2.423.69-.863 1.922-.863 1.283 0 1.968.932h.075l-.041-.455-.023-.443v-2.567h.956v8.955h-.777zm-2.037-.685q.978 0 1.418-.532.44-.533.44-1.718v-.201q0-1.341-.446-1.914t-1.424-.573q-.84 0-1.286.654-.446.653-.446 1.844 0 1.209.443 1.824.443.616 1.301.616zm7.504.8q-1.399 0-2.207-.852-.809-.851-.809-2.365 0-1.525.751-2.423.751-.897 2.017-.897 1.186 0 1.876.779.691.78.691 2.058v.604h-4.345q.029 1.111.561 1.686.532.576 1.499.576 1.019 0 2.014-.426v.851q-.506.219-.958.314-.452.095-1.09.095zm-.259-5.738q-.76 0-1.212.495-.451.495-.532 1.37h3.298q0-.903-.403-1.384-.403-.481-1.151-.481zm-51.16 3.384q0 1.111-.806 1.732-.805.622-2.186.622-1.497 0-2.302-.386v-.943q.518.218 1.128.345.61.126 1.208.126.978 0 1.473-.371.495-.371.495-1.033 0-.437-.175-.716-.176-.279-.587-.515-.412-.236-1.252-.535-1.174-.42-1.677-.996-.504-.575-.504-1.502 0-.972.731-1.548.731-.575 1.934-.575 1.254 0 2.307.46l-.305.852q-1.041-.438-2.026-.438-.776 0-1.214.334-.437.334-.437.927 0 .437.161.716.161.279.544.512.383.233 1.171.515 1.324.472 1.821 1.013.498.541.498 1.404zm2.532-4.068v6.307h-.955v-6.307h.955zm-1.036-1.71q0-.328.161-.48.162-.153.403-.153.23 0 .397.156.167.155.167.477 0 .323-.167.481-.167.158-.397.158-.241 0-.403-.158-.161-.158-.161-.481zm7.13 6.296q0 .881-.656 1.358-.656.478-1.841.478-1.255 0-1.957-.397v-.886q.455.23.976.362.521.133 1.004.133.748 0 1.151-.239t.403-.728q0-.369-.32-.63-.319-.262-1.246-.619-.88-.328-1.251-.573-.371-.244-.553-.555-.181-.311-.181-.742 0-.771.627-1.217.628-.446 1.721-.446 1.019 0 1.991.414l-.339.777q-.95-.392-1.721-.392-.679 0-1.024.213-.346.213-.346.587 0 .254.13.432.129.178.417.34.288.161 1.105.466 1.122.408 1.516.823.394.414.394 1.041zm3.591 1.048q.254 0 .49-.038.235-.037.374-.078v.731q-.156.075-.458.124-.302.049-.544.049-1.83 0-1.83-1.928v-3.752h-.903v-.46l.903-.397.403-1.347h.553v1.462h1.83v.742h-1.83v3.712q0 .57.27.875.271.305.742.305zm4.788.788q-1.398 0-2.207-.852-.808-.851-.808-2.365 0-1.525.751-2.423.751-.897 2.017-.897 1.185 0 1.876.779.691.78.691 2.058v.604H26.17q.028 1.111.561 1.686.532.576 1.499.576 1.018 0 2.014-.426v.851q-.506.219-.958.314-.452.095-1.091.095zm-.259-5.738q-.759 0-1.211.495-.452.495-.532 1.37h3.297q0-.903-.403-1.384-.402-.481-1.151-.481zm13.202 5.623h-.956V67.28q0-.754-.322-1.131t-1.001-.377q-.892 0-1.318.512-.426.512-.426 1.577v3.522h-.955V67.28q0-.754-.322-1.131-.323-.377-1.007-.377-.898 0-1.315.538-.418.538-.418 1.764v3.309h-.955v-6.307h.777l.155.863h.046q.271-.461.763-.719.492-.259 1.102-.259 1.479 0 1.934 1.07h.046q.282-.495.817-.783.535-.287 1.22-.287 1.07 0 1.602.549.533.55.533 1.758v4.115zm6.554 0h-.707l-.19-.898h-.046q-.472.593-.941.803-.469.21-1.171.21-.938 0-1.471-.483-.532-.484-.532-1.376 0-1.91 3.056-2.002l1.07-.035v-.391q0-.743-.319-1.097-.32-.354-1.022-.354-.788 0-1.784.484l-.293-.731q.466-.253 1.021-.397.556-.144 1.114-.144 1.128 0 1.672.501.543.5.543 1.605v4.305zm-2.865-.673q.892 0 1.401-.49.509-.489.509-1.369v-.57l-.955.04q-1.14.041-1.643.354-.504.314-.504.976 0 .518.314.788.314.271.878.271z" fill-rule="evenodd" fill="#fdfdfd"/><path vector-effect="non-scaling-stroke" stroke="#f8f9fa" stroke-linecap="square" stroke-miterlimit="3" d="M8 53.786h181"/></g></svg>