<svg xmlns="http://www.w3.org/2000/svg" style="isolation:isolate" width="50" height="50"><path d="M22.177 39.99c-.264.614-.527 1.228-.527 1.93 0 2.194 3.51 5.09 3.51 5.09s3.51-2.896 3.51-5.09c0-.702-.175-1.405-.526-1.93" fill="none" vector-effect="non-scaling-stroke" stroke-width="1.755" stroke="#009688" stroke-linejoin="round" stroke-linecap="round" stroke-miterlimit="10"/><path d="M25.75 3.19l-.7-.2-.8.2s0 .1-.1.1c-4 2.9-6.5 7.5-6.7 12.4.2 5.9.8 11.8 1.7 17.6l.3 3c.2 1.1 1.1 1.9 2.2 1.9h6.7c1.1 0 2.1-.9 2.2-2 1.1-6.8 1.8-13.6 2-20.5-.2-4.9-2.7-9.5-6.7-12.4-.1 0-.1-.1-.1-.1z" fill="none" vector-effect="non-scaling-stroke" stroke="#000" stroke-linecap="square" stroke-miterlimit="3"/><path d="M25.05 18.89c-.9 0-1.7-.3-2.3-.9-.5-.6-.9-1.4-.9-2.2 0-1.7 1.4-3.1 3.2-3.1.8 0 1.6.3 2.2.9.6.6.9 1.4.9 2.2 0 .8-.3 1.6-.9 2.2-.6.6-1.4.9-2.2.9z" fill="none"/><path d="M25.05 17.89c-.6 0-1.2-.2-1.6-.6-.4-.4-.6-.9-.6-1.5 0-1.2 1-2.1 2.2-2.1.5 0 1.1.2 1.5.6.4.4.6.9.6 1.5s-.2 1.1-.6 1.5c-.4.4-1 .6-1.5.6z" fill="none" vector-effect="non-scaling-stroke" stroke="#009688" stroke-linecap="square" stroke-miterlimit="3"/><path d="M15.85 33.39v.1-.2.1z"/><path d="M17.15 36.74v-.1l-.3-2.7v-.3l-.5-4.2-2.7 3.3-.3.7v3.8l.5 1 .8.2h.5l2.3-.9-.1-.5-.2-.3z" fill="none" vector-effect="non-scaling-stroke" stroke="#000" stroke-linecap="square" stroke-miterlimit="3"/><path d="M34.15 36.69l.1-.1-.1.2v-.1z"/><path d="M36.35 32.64l-2.7-3.2-.8 7v.1l-.3.9 2.3.9h.5l.8-.2.5-1v-3.8l-.3-.7z" fill="none" vector-effect="non-scaling-stroke" stroke="#000" stroke-linecap="square" stroke-miterlimit="3"/></svg>