<?xml version="1.0" encoding="UTF-8" standalone="no"?><!-- Generator: Gravit.io --><svg xmlns="http://www.w3.org/2000/svg" xmlns:xlink="http://www.w3.org/1999/xlink" style="isolation:isolate" viewBox="13.975 28.885 256.002 23.046" width="256.002pt" height="23.046pt"><path d=" M 159.506 39.2 L 167.036 51.138 L 161.879 51.138 L 156.269 42.115 L 154.35 43.492 L 154.35 51.138 L 149.809 51.138 L 149.809 29.722 L 154.35 29.722 L 154.35 39.522 L 156.137 37.002 L 161.938 29.722 L 166.977 29.722 L 159.506 39.2 L 159.506 39.2 Z  M 192.734 51.138 L 187.841 51.138 L 186.289 46.041 L 178.481 46.041 L 176.928 51.138 L 172.036 51.138 L 179.594 29.634 L 185.146 29.634 L 192.734 51.138 L 192.734 51.138 Z  M 179.624 42.232 L 185.205 42.232 L 185.205 42.232 Q 183.051 35.303 182.78 34.395 L 182.78 34.395 L 182.78 34.395 Q 182.509 33.487 182.392 32.959 L 182.392 32.959 L 182.392 32.959 Q 181.909 34.834 179.624 42.232 L 179.624 42.232 L 179.624 42.232 Z  M 204.97 33.443 L 204.97 39.229 L 206.435 39.229 L 206.435 39.229 Q 208.588 39.229 209.614 38.511 L 209.614 38.511 L 209.614 38.511 Q 210.639 37.793 210.639 36.255 L 210.639 36.255 L 210.639 36.255 Q 210.639 34.732 209.592 34.087 L 209.592 34.087 L 209.592 34.087 Q 208.544 33.443 206.347 33.443 L 206.347 33.443 L 204.97 33.443 L 204.97 33.443 Z  M 207.387 42.92 L 204.97 42.92 L 204.97 51.138 L 200.429 51.138 L 200.429 29.722 L 206.669 29.722 L 206.669 29.722 Q 211.035 29.722 213.129 31.312 L 213.129 31.312 L 213.129 31.312 Q 215.224 32.901 215.224 36.138 L 215.224 36.138 L 215.224 36.138 Q 215.224 38.028 214.184 39.5 L 214.184 39.5 L 214.184 39.5 Q 213.144 40.972 211.24 41.807 L 211.24 41.807 L 211.24 41.807 Q 216.074 49.029 217.539 51.138 L 217.539 51.138 L 212.5 51.138 L 207.387 42.92 L 207.387 42.92 Z  M 229.775 33.443 L 229.775 39.229 L 231.24 39.229 L 231.24 39.229 Q 233.393 39.229 234.418 38.511 L 234.418 38.511 L 234.418 38.511 Q 235.444 37.793 235.444 36.255 L 235.444 36.255 L 235.444 36.255 Q 235.444 34.732 234.396 34.087 L 234.396 34.087 L 234.396 34.087 Q 233.349 33.443 231.152 33.443 L 231.152 33.443 L 229.775 33.443 L 229.775 33.443 Z  M 232.192 42.92 L 229.775 42.92 L 229.775 51.138 L 225.234 51.138 L 225.234 29.722 L 231.474 29.722 L 231.474 29.722 Q 235.839 29.722 237.934 31.312 L 237.934 31.312 L 237.934 31.312 Q 240.029 32.901 240.029 36.138 L 240.029 36.138 L 240.029 36.138 Q 240.029 38.028 238.989 39.5 L 238.989 39.5 L 238.989 39.5 Q 237.949 40.972 236.044 41.807 L 236.044 41.807 L 236.044 41.807 Q 240.878 49.029 242.343 51.138 L 242.343 51.138 L 237.304 51.138 L 232.192 42.92 L 232.192 42.92 Z  M 269.477 40.401 L 269.477 40.401 L 269.477 40.401 Q 269.477 45.718 266.84 48.575 L 266.84 48.575 L 266.84 48.575 Q 264.204 51.431 259.282 51.431 L 259.282 51.431 L 259.282 51.431 Q 254.36 51.431 251.723 48.575 L 251.723 48.575 L 251.723 48.575 Q 249.086 45.718 249.086 40.372 L 249.086 40.372 L 249.086 40.372 Q 249.086 35.025 251.73 32.205 L 251.73 32.205 L 251.73 32.205 Q 254.375 29.385 259.311 29.385 L 259.311 29.385 L 259.311 29.385 Q 264.248 29.385 266.862 32.227 L 266.862 32.227 L 266.862 32.227 Q 269.477 35.069 269.477 40.401 Z  M 253.847 40.401 L 253.847 40.401 L 253.847 40.401 Q 253.847 43.99 255.209 45.806 L 255.209 45.806 L 255.209 45.806 Q 256.572 47.623 259.282 47.623 L 259.282 47.623 L 259.282 47.623 Q 264.716 47.623 264.716 40.401 L 264.716 40.401 L 264.716 40.401 Q 264.716 33.165 259.311 33.165 L 259.311 33.165 L 259.311 33.165 Q 256.601 33.165 255.224 34.988 L 255.224 34.988 L 255.224 34.988 Q 253.847 36.812 253.847 40.401 Z  M 32.244 40.225 L 32.244 40.225 L 32.244 40.225 Q 32.244 45.513 29.233 48.326 L 29.233 48.326 L 29.233 48.326 Q 26.223 51.138 20.54 51.138 L 20.54 51.138 L 14.475 51.138 L 14.475 29.722 L 21.199 29.722 L 21.199 29.722 Q 26.443 29.722 29.343 32.491 L 29.343 32.491 L 29.343 32.491 Q 32.244 35.259 32.244 40.225 Z  M 27.527 40.342 L 27.527 40.342 L 27.527 40.342 Q 27.527 33.443 21.433 33.443 L 21.433 33.443 L 19.016 33.443 L 19.016 47.388 L 20.964 47.388 L 20.964 47.388 Q 27.527 47.388 27.527 40.342 Z  M 59.685 51.138 L 54.792 51.138 L 53.24 46.041 L 45.432 46.041 L 43.879 51.138 L 38.987 51.138 L 46.545 29.634 L 52.097 29.634 L 59.685 51.138 L 59.685 51.138 Z  M 46.575 42.232 L 52.156 42.232 L 52.156 42.232 Q 50.002 35.303 49.731 34.395 L 49.731 34.395 L 49.731 34.395 Q 49.46 33.487 49.343 32.959 L 49.343 32.959 L 49.343 32.959 Q 48.86 34.834 46.575 42.232 L 46.575 42.232 L 46.575 42.232 Z  M 75.54 42.466 L 79.597 29.722 L 84.182 29.722 L 76.902 51.138 L 71.951 51.138 L 64.685 29.722 L 69.27 29.722 L 73.298 42.466 L 73.298 42.466 Q 73.635 43.594 73.994 45.096 L 73.994 45.096 L 73.994 45.096 Q 74.353 46.597 74.441 47.183 L 74.441 47.183 L 74.441 47.183 Q 74.602 45.835 75.54 42.466 L 75.54 42.466 L 75.54 42.466 Z  M 96.418 51.138 L 91.877 51.138 L 91.877 29.722 L 96.418 29.722 L 96.418 51.138 L 96.418 51.138 Z  M 124.578 40.225 L 124.578 40.225 L 124.578 40.225 Q 124.578 45.513 121.567 48.326 L 121.567 48.326 L 121.567 48.326 Q 118.557 51.138 112.874 51.138 L 112.874 51.138 L 106.809 51.138 L 106.809 29.722 L 113.533 29.722 L 113.533 29.722 Q 118.777 29.722 121.677 32.491 L 121.677 32.491 L 121.677 32.491 Q 124.578 35.259 124.578 40.225 Z  M 119.861 40.342 L 119.861 40.342 L 119.861 40.342 Q 119.861 33.443 113.767 33.443 L 113.767 33.443 L 111.35 33.443 L 111.35 47.388 L 113.298 47.388 L 113.298 47.388 Q 119.861 47.388 119.861 40.342 Z " fill="none" vector-effect="non-scaling-stroke" stroke-width="1" stroke="rgb(0,0,0)" stroke-linejoin="miter" stroke-linecap="square" stroke-miterlimit="3"/></svg>