<?xml version="1.0" standalone="no"?>
<!DOCTYPE svg PUBLIC "-//W3C//DTD SVG 20010904//EN"
 "http://www.w3.org/TR/2001/REC-SVG-20010904/DTD/svg10.dtd">
<svg version="1.0" xmlns="http://www.w3.org/2000/svg"
 width="150.000000pt" height="150.000000pt" viewBox="0 0 150.000000 150.000000"
 preserveAspectRatio="xMidYMid meet">
<metadata>
Created by potrace 1.11, written by Peter Selinger 2001-2013
</metadata>
<g transform="translate(0.000000,150.000000) scale(0.100000,-0.100000)"
fill="#000000" stroke="none">
<path d="M0 750 l0 -750 750 0 750 0 0 750 0 750 -750 0 -750 0 0 -750z m833
589 c199 -30 364 -149 456 -329 41 -81 56 -131 66 -225 7 -63 -5 -160 -26
-210 -7 -16 -11 -34 -10 -38 1 -5 -3 -6 -8 -3 -5 3 -18 -14 -30 -39 -15 -32
-25 -43 -37 -38 -10 4 -17 -1 -21 -16 -3 -11 -9 -18 -14 -15 -5 3 -9 1 -9 -5
0 -5 -13 -25 -30 -43 -16 -18 -30 -38 -30 -45 0 -16 -3 -16 -47 2 -45 19 -53
12 -23 -20 12 -13 20 -31 17 -39 -8 -21 -104 -94 -146 -112 -45 -19 -180 -31
-141 -13 14 6 35 13 47 15 12 1 31 12 42 23 29 29 26 37 -4 13 -15 -12 -34
-18 -50 -15 -14 3 -25 6 -25 8 0 1 17 14 38 28 55 37 103 88 119 126 8 18 13
35 11 36 -2 2 -18 -3 -36 -12 -22 -11 -31 -21 -27 -31 7 -18 -22 -41 -51 -42
-12 0 -33 -9 -47 -20 -29 -23 -43 -25 -50 -7 -4 9 -7 9 -15 -1 -11 -16 -77
-29 -67 -13 4 7 -6 12 -27 13 -18 0 -37 2 -43 3 -13 2 -85 69 -85 79 0 5 -14
24 -30 43 -17 18 -30 40 -30 48 0 21 -79 9 -149 -21 -29 -13 -54 -24 -55 -24
-1 0 -3 11 -4 24 -1 14 -13 45 -27 70 -14 25 -22 46 -18 46 4 0 3 4 -3 8 -13
9 -51 142 -60 207 -4 32 0 75 11 120 58 250 251 426 510 465 73 11 80 11 158
-1z m-313 -986 c7 -16 15 -63 16 -105 l3 -77 -30 11 c-35 12 -49 41 -49 99 0
40 23 99 39 99 4 0 14 -12 21 -27z m86 -173 c6 -6 30 -16 55 -24 l44 -14 -35
0 c-51 0 -84 12 -88 31 -4 19 9 22 24 7z"/>
<path d="M678 1280 c-2 -3 -18 -16 -35 -29 -33 -22 -44 -43 -21 -38 7 1 18 9
25 17 11 13 13 12 13 -5 1 -15 3 -17 8 -5 9 19 32 24 33 8 1 -17 17 23 18 44
1 11 -6 16 -19 15 -11 -1 -21 -4 -22 -7z"/>
<path d="M770 1278 c25 -5 50 -16 56 -24 10 -13 24 -9 24 7 0 11 -60 29 -94
28 -27 -1 -25 -2 14 -11z"/>
<path d="M736 1255 c-3 -8 -1 -15 4 -15 6 0 10 7 10 15 0 8 -2 15 -4 15 -2 0
-6 -7 -10 -15z"/>
<path d="M780 1249 c0 -5 5 -7 10 -4 6 3 10 8 10 11 0 2 -4 4 -10 4 -5 0 -10
-5 -10 -11z"/>
<path d="M835 1213 c-10 -21 -21 -41 -23 -45 -2 -5 6 -8 17 -8 16 0 21 6 21
24 l0 25 45 -16 c36 -12 43 -18 35 -28 -8 -10 -8 -15 1 -21 7 -4 18 1 27 12 8
10 12 13 10 5 -5 -16 -17 -23 -66 -39 -36 -12 -88 0 -78 17 4 5 -3 7 -15 4
-18 -5 -15 -9 22 -26 33 -15 47 -17 61 -8 10 6 26 11 36 11 25 0 54 33 47 53
-4 8 -16 18 -28 21 -12 3 -35 17 -51 31 -16 14 -32 25 -35 25 -4 0 -15 -17
-26 -37z"/>
<path d="M711 1204 c-12 -27 -7 -45 8 -28 14 14 23 54 13 54 -5 0 -14 -12 -21
-26z"/>
<path d="M779 1213 c-13 -16 -12 -17 4 -4 9 7 17 15 17 17 0 8 -8 3 -21 -13z"/>
<path d="M578 1213 c7 -3 16 -2 19 1 4 3 -2 6 -13 5 -11 0 -14 -3 -6 -6z"/>
<path d="M797 1204 c-4 -4 -7 -17 -7 -28 1 -19 1 -20 11 -3 11 19 8 43 -4 31z"/>
<path d="M645 1160 c6 -9 -1 -11 -28 -8 -20 2 -34 0 -31 -4 3 -4 44 -7 92 -6
65 1 77 3 47 8 -22 3 -51 10 -64 14 -17 6 -22 5 -16 -4z"/>
<path d="M411 1090 c-49 -11 -89 -34 -98 -56 -7 -20 22 -83 42 -91 22 -8 59
-80 66 -127 5 -32 3 -40 -13 -44 -23 -6 -23 -24 1 -87 20 -53 56 -84 101 -86
20 -1 17 -3 -10 -9 -27 -5 -15 -8 53 -11 l88 -4 30 44 c16 25 29 50 29 57 0
14 20 23 37 17 7 -2 17 -21 24 -41 21 -65 45 -78 138 -79 44 -1 79 2 76 7 -3
4 8 13 24 18 20 7 33 21 42 46 7 20 16 36 20 36 16 0 17 -32 4 -71 -17 -47
-19 -73 -6 -65 5 3 12 21 15 40 4 20 13 48 21 63 22 41 20 66 -4 58 -16 -5
-19 -2 -17 17 6 54 38 111 87 155 44 40 54 64 39 93 -20 37 -124 76 -285 106
-104 19 -437 28 -504 14z m59 -246 c3 0 18 -6 33 -12 16 -7 33 -12 40 -12 29
0 -22 -28 -60 -33 l-43 -5 0 40 c0 29 3 37 13 31 6 -4 14 -8 17 -9z m577 -81
c-3 -3 -13 -1 -22 5 -16 8 -16 10 -1 15 9 4 17 14 17 24 1 10 4 5 6 -10 3 -16
2 -31 0 -34z m-294 2 c3 -15 -43 -19 -57 -5 -8 8 -7 13 3 19 16 10 52 0 54
-14z m-187 -25 c1 -23 -3 -30 -18 -30 -10 0 -26 -4 -36 -9 -9 -4 -32 -13 -49
-19 -32 -10 -33 -9 -33 18 0 42 10 60 32 60 10 0 16 -4 13 -10 -3 -6 1 -7 9
-4 9 3 16 1 16 -5 0 -19 29 -12 40 9 15 28 25 25 26 -10z m114 -5 c15 -18 0
-84 -26 -110 -30 -30 -194 -15 -207 19 -7 16 81 36 159 36 59 0 82 17 35 26
-34 7 -33 6 -25 28 8 20 48 21 64 1z m250 -10 c7 -18 15 -23 32 -20 13 3 28
11 34 19 16 22 36 3 32 -30 -2 -24 -7 -28 -28 -26 -14 2 -35 10 -47 18 -12 8
-30 14 -39 14 -11 0 -14 5 -10 16 3 9 6 20 6 25 0 17 10 9 20 -16z m-78 -9 c7
-13 4 -16 -14 -16 -13 0 -29 -4 -37 -9 -8 -5 8 -10 45 -13 33 -3 85 -13 118
-22 53 -17 57 -19 42 -34 -19 -19 -105 -30 -160 -21 -52 8 -76 39 -76 95 l0
43 36 -3 c21 -2 41 -11 46 -20z"/>
<path d="M414 610 c3 -14 6 -28 6 -32 0 -5 5 -8 11 -8 12 0 2 39 -13 55 -7 7
-9 2 -4 -15z"/>
<path d="M650 551 c0 -5 7 -12 16 -15 12 -5 14 -10 5 -20 -6 -7 -8 -15 -6 -18
3 -3 -11 -8 -31 -11 -43 -7 -74 -40 -74 -79 l0 -29 28 20 c32 24 107 28 222
12 80 -10 90 -9 90 17 -1 31 -26 52 -62 52 -27 0 -40 6 -52 25 -21 31 -20 33
7 38 20 3 20 4 4 11 -12 6 -24 3 -36 -8 -22 -20 -51 -21 -77 -1 -22 17 -34 19
-34 6z m70 -77 c0 -8 -4 -12 -10 -9 -5 3 -10 10 -10 16 0 5 5 9 10 9 6 0 10
-7 10 -16z"/>
<path d="M690 388 c0 -18 18 -34 28 -24 3 4 -2 14 -11 23 -16 16 -17 16 -17 1z"/>
</g>
</svg>
