<?xml version="1.0" standalone="no"?><!-- Generator: Gravit.io --><svg xmlns="http://www.w3.org/2000/svg" xmlns:xlink="http://www.w3.org/1999/xlink" style="isolation:isolate" viewBox="-1.5 -1.5 944 431" width="944" height="431"><path d=" M 56.588 355.5 L 217.796 64.5 L 334.75 217.658 L 154.577 262.074 L 282.595 355.5 L 56.588 355.5 Z " fill="rgb(255,255,255)" vector-effect="non-scaling-stroke" stroke-width="2.14" stroke="rgb(0,0,0)" stroke-linejoin="miter" stroke-linecap="square" stroke-miterlimit="3"/><path d=" M 360.427 224.978 L 289.816 355.5 L 439.596 355.5 L 360.427 224.978 Z " fill="rgb(255,255,255)" vector-effect="non-scaling-stroke" stroke-width="2.14" stroke="rgb(0,0,0)" stroke-linejoin="miter" stroke-linecap="square" stroke-miterlimit="3"/><polygon points="611.842,221.794,557.28,253.296,557.28,190.292" fill="rgb(235,235,235)"/><path d=" M 456.713 355.5 L 456.713 162.926 L 578.677 224.978 L 508.066 259.213 L 578.677 355.5" fill="none" vector-effect="non-scaling-stroke" stroke-width="2.14" stroke="rgb(0,0,0)" stroke-linejoin="miter" stroke-linecap="square" stroke-miterlimit="3"/><path d=" M 542.302 355.5 L 542.302 162.926 L 664.265 224.978 L 593.655 259.213 L 664.265 355.5" fill="none" vector-effect="non-scaling-stroke" stroke-width="2.14" stroke="rgb(0,0,0)" stroke-linejoin="miter" stroke-linecap="square" stroke-miterlimit="3"/><path d=" M 693.032 190.292 L 681.382 328.134 L 726.316 328.134 L 693.032 190.292 Z " fill="rgb(255,255,255)" vector-effect="non-scaling-stroke" stroke-width="2.14" stroke="rgb(0,0,0)" stroke-linejoin="miter" stroke-linecap="square" stroke-miterlimit="3"/><polygon points="851.254,355.18,782.405,355.5,747.713,293.768,781.871,231.717,850.72,231.397,885.412,293.129" fill="none" vector-effect="non-scaling-stroke" stroke-width="2.14" stroke="rgb(0,0,0)" stroke-linejoin="miter" stroke-linecap="square" stroke-miterlimit="3"/><g transform="matrix(1,0,0,1,778.354,200.246)"><text transform="matrix(1,0,0,1,20.783,16.956)" style="font-family:&quot;Baumans&quot;;font-weight:400;font-size:18px;font-style:normal;fill:#000000;stroke:none;">CMS</text></g><path d=" M 681.382 336.243 L 689.941 355.5 L 719.897 355.5 L 726.316 336.243 L 681.382 336.243 Z " fill="rgb(255,255,255)" vector-effect="non-scaling-stroke" stroke-width="2.14" stroke="rgb(0,0,0)" stroke-linejoin="miter" stroke-linecap="square" stroke-miterlimit="3"/><path d=" M 693.032 182.184 L 707.059 162.926 L 693.032 162.926 L 726.316 130.831 L 711.338 156.507 L 719.897 156.507 L 693.032 182.184 Z " fill="rgb(255,255,255)" vector-effect="non-scaling-stroke" stroke-width="2.14" stroke="rgb(0,0,0)" stroke-linejoin="miter" stroke-linecap="square" stroke-miterlimit="3"/><polygon points="532.673,221.794,478.11,253.296,478.11,190.292" fill="rgb(235,235,235)"/><polygon points="360.427,281.68,391.928,336.243,328.925,336.243" fill="rgb(235,235,235)"/><polygon points="221.414,113.312,277.922,205.456,178.552,212.541" fill="rgb(235,235,235)"/><path d=" M 97.243 336.243 L 125.059 281.68 L 218.381 340.522 L 97.243 336.243 Z " fill="rgb(235,235,235)"/><path d=" M 698.5 253.296 L 693.032 316.985 L 711.338 316.985 L 698.5 253.296 Z " fill="rgb(235,235,235)"/><path d=" M 775.908 293.449 C 775.908 271.011 794.125 252.794 816.562 252.794 C 839 252.794 857.217 271.011 857.217 293.449 C 857.217 315.886 839 334.103 816.562 334.103 C 794.125 334.103 775.908 315.886 775.908 293.449 Z " fill="rgb(235,235,235)"/><rect x="0" y="0" width="941" height="428" transform="matrix(1,0,0,1,0,0)" fill="none"/><g transform="matrix(1,0,0,1,812.566,399)"><text transform="matrix(1,0,0,1,0,13.188)" style="font-family:&quot;Baumans&quot;;font-weight:400;font-size:14px;font-style:normal;fill:#000000;stroke:none;">By Moncho Varela</text></g></svg>