<?xml version="1.0" standalone="no"?><!-- Generator: Gravit.io --><svg xmlns="http://www.w3.org/2000/svg" xmlns:xlink="http://www.w3.org/1999/xlink" fill="#EEEEEE" style="isolation:isolate" viewBox="0 0 480 380" width="480" height="380"><clipPath id="_clipPath_kMznaxCwGlVPPTVxUIarO3Ud1G5Ty4Fa"><rect x="64" y="123.5" width="352" height="133" transform="matrix(1,0,0,1,0,0)" fill="#EEEEEE"/></clipPath><g clip-path="url(#_clipPath_kMznaxCwGlVPPTVxUIarO3Ud1G5Ty4Fa)"><g id="null"><path d=" M 280.948 163.184 L 280.948 163.184 L 280.948 163.184 Q 280.948 154.222 286.005 148.361 L 286.005 148.361 L 286.005 148.361 Q 291.061 142.5 299.048 142.5 L 299.048 142.5 L 299.048 142.5 Q 306.001 142.5 311.632 147.384 L 311.632 147.384 L 311.632 147.384 Q 312.55 148.131 312.55 146.809 L 312.55 146.809 L 312.55 143.938 L 312.55 143.938 Q 312.55 143.074 313.412 143.074 L 313.412 143.074 L 313.412 143.074 Q 314.275 143.074 314.275 143.938 L 314.275 143.938 L 314.275 154.853 L 314.275 154.853 Q 314.275 155.716 313.412 155.716 L 313.412 155.716 L 313.412 155.716 Q 312.55 155.716 312.55 154.853 L 312.55 154.853 L 312.55 150.831 L 312.55 150.831 Q 310.999 149.051 308.931 147.557 L 308.931 147.557 L 308.931 147.557 Q 304.219 144.225 299.048 144.225 L 299.048 144.225 L 299.048 144.225 Q 291.98 144.225 287.327 149.653 L 287.327 149.653 L 287.327 149.653 Q 282.673 155.083 282.673 163.271 L 282.673 163.271 L 282.673 163.271 Q 282.673 171.459 287.5 176.802 L 287.5 176.802 L 287.5 176.802 Q 292.326 182.146 300.37 182.146 L 300.37 182.146 L 300.37 182.146 Q 308.414 182.146 313.355 176.918 L 313.355 176.918 L 313.355 176.918 Q 313.929 176.342 314.389 176.802 L 314.389 176.802 L 314.389 176.802 Q 314.849 177.262 314.849 177.55 L 314.849 177.55 L 314.849 177.55 Q 314.849 177.837 314.562 178.124 L 314.562 178.124 L 314.562 178.124 Q 308.701 183.871 300.111 183.871 L 300.111 183.871 L 300.111 183.871 Q 291.522 183.871 286.235 178.01 L 286.235 178.01 L 286.235 178.01 Q 280.948 172.149 280.948 163.184 Z  M 321.055 181.572 L 321.055 181.572 L 325.077 181.572 L 325.077 181.572 Q 325.938 181.572 325.938 180.71 L 325.938 180.71 L 325.938 145.661 L 325.938 145.661 Q 325.938 144.799 325.077 144.799 L 325.077 144.799 L 321.055 144.799 L 321.055 144.799 Q 320.193 144.799 320.193 143.938 L 320.193 143.938 L 320.193 143.938 Q 320.193 143.074 321.055 143.074 L 321.055 143.074 L 327.376 143.074 L 327.376 143.074 Q 328.408 143.074 328.811 143.938 L 328.811 143.938 L 344.9 179.56 L 344.9 179.56 Q 345.474 180.71 346.048 179.56 L 346.048 179.56 L 362.136 143.938 L 362.136 143.938 Q 362.539 143.074 363.574 143.074 L 363.574 143.074 L 369.893 143.074 L 369.893 143.074 Q 370.755 143.074 370.755 143.938 L 370.755 143.938 L 370.755 143.938 Q 370.755 144.799 369.893 144.799 L 369.893 144.799 L 365.871 144.799 L 365.871 144.799 Q 365.01 144.799 365.01 145.661 L 365.01 145.661 L 365.01 180.71 L 365.01 180.71 Q 365.01 181.572 365.871 181.572 L 365.871 181.572 L 369.893 181.572 L 369.893 181.572 Q 370.755 181.572 370.755 182.433 L 370.755 182.433 L 370.755 182.433 Q 370.755 183.295 369.893 183.295 L 369.893 183.295 L 358.976 183.295 L 358.976 183.295 Q 358.114 183.295 358.114 182.433 L 358.114 182.433 L 358.114 182.433 Q 358.114 181.572 358.976 181.572 L 358.976 181.572 L 362.424 181.572 L 362.424 181.572 Q 363.285 181.572 363.285 180.71 L 363.285 180.71 L 363.285 147.096 L 363.285 147.096 Q 363.285 146.522 363.057 146.638 L 363.057 146.638 L 363.057 146.638 Q 362.941 146.638 362.827 146.809 L 362.827 146.809 L 346.738 182.433 L 346.738 182.433 Q 346.278 183.295 345.474 183.295 L 345.474 183.295 L 345.474 183.295 Q 344.67 183.295 344.209 182.433 L 344.209 182.433 L 328.121 146.809 L 328.121 146.809 Q 327.891 146.465 327.777 146.638 L 327.777 146.638 L 327.777 146.638 Q 327.663 146.809 327.663 147.096 L 327.663 147.096 L 327.663 180.71 L 327.663 180.71 Q 327.663 181.572 328.524 181.572 L 328.524 181.572 L 331.972 181.572 L 331.972 181.572 Q 332.833 181.572 332.833 182.433 L 332.833 182.433 L 332.833 182.433 Q 332.833 183.295 331.972 183.295 L 331.972 183.295 L 321.055 183.295 L 321.055 183.295 Q 320.193 183.295 320.193 182.433 L 320.193 182.433 L 320.193 182.433 Q 320.193 181.572 321.055 181.572 Z  M 382.821 178.985 L 382.821 178.985 L 382.821 178.985 Q 387.647 182.146 393.422 182.146 L 393.422 182.146 L 393.422 182.146 Q 399.196 182.146 402.386 179.589 L 402.386 179.589 L 402.386 179.589 Q 405.574 177.032 405.574 172.953 L 405.574 172.953 L 405.574 172.953 Q 405.574 170.711 404.196 169.045 L 404.196 169.045 L 404.196 169.045 Q 402.817 167.38 400.748 166.461 L 400.748 166.461 L 400.748 166.461 Q 398.451 165.426 391.842 163.617 L 391.842 163.617 L 391.842 163.617 Q 385.234 161.806 382.734 160.571 L 382.734 160.571 L 382.734 160.571 Q 380.236 159.335 378.828 157.439 L 378.828 157.439 L 378.828 157.439 Q 377.42 155.543 377.42 153.073 L 377.42 153.073 L 377.42 153.073 Q 377.42 148.247 380.581 145.373 L 380.581 145.373 L 380.581 145.373 Q 383.741 142.5 390.635 142.5 L 390.635 142.5 L 390.635 142.5 Q 397.473 142.5 403.218 147.384 L 403.218 147.384 L 403.218 147.384 Q 404.138 148.131 404.138 146.809 L 404.138 146.809 L 404.138 143.938 L 404.138 143.938 Q 404.138 143.074 405 143.074 L 405 143.074 L 405 143.074 Q 405.861 143.074 405.861 143.938 L 405.861 143.938 L 405.861 154.853 L 405.861 154.853 Q 405.861 155.716 405 155.716 L 405 155.716 L 405 155.716 Q 404.138 155.716 404.138 154.853 L 404.138 154.853 L 404.138 150.831 L 404.138 150.831 Q 400.978 147.212 396.266 145.259 L 396.266 145.259 L 396.266 145.259 Q 393.738 144.225 390.635 144.225 L 390.635 144.225 L 390.635 144.225 Q 384.776 144.225 381.959 146.638 L 381.959 146.638 L 381.959 146.638 Q 379.145 149.051 379.145 152.556 L 379.145 152.556 L 379.145 152.556 Q 379.145 154.796 380.524 156.462 L 380.524 156.462 L 380.524 156.462 Q 381.902 158.13 383.971 159.048 L 383.971 159.048 L 383.971 159.048 Q 386.269 160.083 392.877 161.892 L 392.877 161.892 L 392.877 161.892 Q 399.483 163.702 401.983 164.937 L 401.983 164.937 L 401.983 164.937 Q 404.483 166.174 405.891 168.07 L 405.891 168.07 L 405.891 168.07 Q 407.299 169.966 407.299 172.609 L 407.299 172.609 L 407.299 172.609 Q 407.299 177.78 403.678 180.824 L 403.678 180.824 L 403.678 180.824 Q 400.059 183.871 392.934 183.871 L 392.934 183.871 L 392.934 183.871 Q 385.808 183.871 380.063 178.985 L 380.063 178.985 L 380.063 178.985 Q 379.145 178.24 379.145 179.56 L 379.145 179.56 L 379.145 182.433 L 379.145 182.433 Q 379.145 183.295 378.282 183.295 L 378.282 183.295 L 378.282 183.295 Q 377.42 183.295 377.42 182.433 L 377.42 182.433 L 377.42 171.516 L 377.42 171.516 Q 377.42 170.654 378.282 170.654 L 378.282 170.654 L 378.282 170.654 Q 379.145 170.654 379.145 171.516 L 379.145 171.516 L 379.145 175.827 L 379.145 175.827 Q 380.695 177.607 382.821 178.985 Z  M 108.461 161.806 L 108.461 161.806 L 108.461 161.806 Q 116.793 163.415 116.793 172.837 L 116.793 172.837 L 116.793 172.837 Q 116.793 177.435 113.949 180.366 L 113.949 180.366 L 113.949 180.366 Q 111.105 183.295 105.875 183.295 L 105.875 183.295 L 86.052 183.295 L 86.052 183.295 Q 85.191 183.295 85.191 182.433 L 85.191 182.433 L 85.191 182.433 Q 85.191 181.572 86.052 181.572 L 86.052 181.572 L 90.076 181.572 L 90.076 181.572 Q 90.937 181.572 90.937 180.71 L 90.937 180.71 L 90.937 145.661 L 90.937 145.661 Q 90.937 144.799 90.076 144.799 L 90.076 144.799 L 86.052 144.799 L 86.052 144.799 Q 85.191 144.799 85.191 143.938 L 85.191 143.938 L 85.191 143.938 Q 85.191 143.074 86.052 143.074 L 86.052 143.074 L 103.578 143.074 L 103.578 143.074 Q 108.174 143.074 111.047 145.948 L 111.047 145.948 L 111.047 145.948 Q 113.919 148.821 113.919 153.13 L 113.919 153.13 L 113.919 153.13 Q 113.919 159.221 108.461 161.806 Z  M 92.66 145.661 L 92.66 160.6 L 92.66 160.6 Q 92.66 161.461 93.522 161.461 L 93.522 161.461 L 103.865 161.461 L 103.865 161.461 Q 107.484 161.461 109.84 159.019 L 109.84 159.019 L 109.84 159.019 Q 112.196 156.578 112.196 153.016 L 112.196 153.016 L 112.196 153.016 Q 112.196 149.452 109.869 147.126 L 109.869 147.126 L 109.869 147.126 Q 107.543 144.799 103.578 144.799 L 103.578 144.799 L 93.522 144.799 L 93.522 144.799 Q 92.66 144.799 92.66 145.661 L 92.66 145.661 Z  M 92.66 164.048 L 92.66 180.71 L 92.66 180.71 Q 92.66 181.572 93.522 181.572 L 93.522 181.572 L 105.875 181.572 L 105.875 181.572 Q 110.186 181.572 112.627 179.129 L 112.627 179.129 L 112.627 179.129 Q 115.07 176.688 115.07 172.379 L 115.07 172.379 L 115.07 172.379 Q 115.07 168.07 112.627 165.627 L 112.627 165.627 L 112.627 165.627 Q 110.186 163.184 105.875 163.184 L 105.875 163.184 L 93.522 163.184 L 93.522 163.184 Q 92.66 163.184 92.66 164.048 L 92.66 164.048 Z  M 144.142 174.389 L 144.142 169.218 L 144.142 169.218 Q 144.142 168.357 143.281 168.357 L 143.281 168.357 L 133.801 168.357 L 133.801 168.357 Q 128.802 168.357 126.418 170.31 L 126.418 170.31 L 126.418 170.31 Q 124.032 172.263 124.032 175.28 L 124.032 175.28 L 124.032 175.28 Q 124.032 178.297 126.245 180.221 L 126.245 180.221 L 126.245 180.221 Q 128.457 182.146 132.938 182.146 L 132.938 182.146 L 132.938 182.146 Q 138.511 182.146 142.764 176.515 L 142.764 176.515 L 142.764 176.515 Q 143.511 175.538 144.142 174.389 L 144.142 174.389 Z  M 135.18 153.992 L 135.18 153.992 L 135.18 153.992 Q 140.006 153.992 142.937 156.722 L 142.937 156.722 L 142.937 156.722 Q 145.867 159.45 145.867 163.473 L 145.867 163.473 L 145.867 180.71 L 145.867 180.71 Q 145.867 181.572 146.729 181.572 L 146.729 181.572 L 150.751 181.572 L 150.751 181.572 Q 151.612 181.572 151.612 182.433 L 151.612 182.433 L 151.612 182.433 Q 151.612 183.295 150.751 183.295 L 150.751 183.295 L 145.004 183.295 L 145.004 183.295 Q 144.142 183.295 144.142 182.433 L 144.142 182.433 L 144.142 179.216 L 144.142 179.216 Q 144.142 178.641 143.912 178.411 L 143.912 178.411 L 143.912 178.411 Q 143.682 178.181 143.224 178.641 L 143.224 178.641 L 143.224 178.641 Q 141.672 180.594 138.915 182.232 L 138.915 182.232 L 138.915 182.232 Q 136.155 183.871 133.168 183.871 L 133.168 183.871 L 133.168 183.871 Q 127.824 183.871 125.067 181.485 L 125.067 181.485 L 125.067 181.485 Q 122.309 179.101 122.309 175.309 L 122.309 175.309 L 122.309 175.309 Q 122.309 171.516 125.468 169.075 L 125.468 169.075 L 125.468 169.075 Q 128.629 166.632 133.801 166.632 L 133.801 166.632 L 143.281 166.632 L 143.281 166.632 Q 144.142 166.632 144.142 165.771 L 144.142 165.771 L 144.142 163.473 L 144.142 163.473 Q 144.142 160.14 141.615 157.927 L 141.615 157.927 L 141.615 157.927 Q 139.086 155.716 135.41 155.716 L 135.41 155.716 L 135.41 155.716 Q 131.732 155.716 129.376 156.722 L 129.376 156.722 L 129.376 156.722 Q 127.02 157.727 126.072 158.474 L 126.072 158.474 L 126.072 158.474 Q 125.124 159.221 124.636 158.531 L 124.636 158.531 L 124.636 158.531 Q 124.148 157.841 124.779 157.382 L 124.779 157.382 L 124.779 157.382 Q 128.916 153.992 135.18 153.992 Z  M 177.813 155.716 L 176.722 155.716 L 176.722 155.716 Q 169.482 155.716 164.656 161.404 L 164.656 161.404 L 164.656 161.404 Q 163.275 163.013 162.356 164.622 L 162.356 164.622 L 162.356 180.71 L 162.356 180.71 Q 162.356 181.572 163.218 181.572 L 163.218 181.572 L 167.814 181.572 L 167.814 181.572 Q 168.678 181.572 168.678 182.433 L 168.678 182.433 L 168.678 182.433 Q 168.678 183.295 167.814 183.295 L 167.814 183.295 L 155.748 183.295 L 155.748 183.295 Q 154.887 183.295 154.887 182.433 L 154.887 182.433 L 154.887 182.433 Q 154.887 181.572 155.748 181.572 L 155.748 181.572 L 159.77 181.572 L 159.77 181.572 Q 160.634 181.572 160.634 180.71 L 160.634 180.71 L 160.634 157.152 L 160.634 157.152 Q 160.634 156.291 159.77 156.291 L 159.77 156.291 L 155.748 156.291 L 155.748 156.291 Q 154.887 156.291 154.887 155.428 L 154.887 155.428 L 154.887 155.428 Q 154.887 154.566 155.748 154.566 L 155.748 154.566 L 161.495 154.566 L 161.495 154.566 Q 162.356 154.566 162.356 155.428 L 162.356 155.428 L 162.356 159.967 L 162.356 159.967 Q 162.356 161.404 163.564 160.026 L 163.564 160.026 L 163.564 160.026 Q 165.688 157.612 169.108 155.801 L 169.108 155.801 L 169.108 155.801 Q 172.527 153.992 176.722 153.992 L 176.722 153.992 L 179.536 153.992 L 179.536 153.992 Q 180.398 153.992 180.398 154.853 L 180.398 154.853 L 180.398 162.036 L 180.398 162.036 Q 180.398 162.897 179.536 162.897 L 179.536 162.897 L 179.536 162.897 Q 178.675 162.897 178.675 162.036 L 178.675 162.036 L 178.675 156.578 L 178.675 156.578 Q 178.675 155.716 177.813 155.716 L 177.813 155.716 Z  M 206.943 155.716 L 205.852 155.716 L 205.852 155.716 Q 198.612 155.716 193.785 161.404 L 193.785 161.404 L 193.785 161.404 Q 192.407 163.013 191.488 164.622 L 191.488 164.622 L 191.488 180.71 L 191.488 180.71 Q 191.488 181.572 192.35 181.572 L 192.35 181.572 L 196.946 181.572 L 196.946 181.572 Q 197.807 181.572 197.807 182.433 L 197.807 182.433 L 197.807 182.433 Q 197.807 183.295 196.946 183.295 L 196.946 183.295 L 184.88 183.295 L 184.88 183.295 Q 184.018 183.295 184.018 182.433 L 184.018 182.433 L 184.018 182.433 Q 184.018 181.572 184.88 181.572 L 184.88 181.572 L 188.902 181.572 L 188.902 181.572 Q 189.763 181.572 189.763 180.71 L 189.763 180.71 L 189.763 157.152 L 189.763 157.152 Q 189.763 156.291 188.902 156.291 L 188.902 156.291 L 184.88 156.291 L 184.88 156.291 Q 184.018 156.291 184.018 155.428 L 184.018 155.428 L 184.018 155.428 Q 184.018 154.566 184.88 154.566 L 184.88 154.566 L 190.627 154.566 L 190.627 154.566 Q 191.488 154.566 191.488 155.428 L 191.488 155.428 L 191.488 159.967 L 191.488 159.967 Q 191.488 161.404 192.694 160.026 L 192.694 160.026 L 192.694 160.026 Q 194.82 157.612 198.238 155.801 L 198.238 155.801 L 198.238 155.801 Q 201.658 153.992 205.852 153.992 L 205.852 153.992 L 208.668 153.992 L 208.668 153.992 Q 209.529 153.992 209.529 154.853 L 209.529 154.853 L 209.529 162.036 L 209.529 162.036 Q 209.529 162.897 208.668 162.897 L 208.668 162.897 L 208.668 162.897 Q 207.806 162.897 207.806 162.036 L 207.806 162.036 L 207.806 156.578 L 207.806 156.578 Q 207.806 155.716 206.943 155.716 L 206.943 155.716 Z  M 214.069 183.295 L 214.069 183.295 Q 213.207 183.295 213.207 182.433 L 213.207 182.433 L 213.207 182.433 Q 213.207 181.572 214.069 181.572 L 214.069 181.572 L 218.091 181.572 L 218.091 181.572 Q 218.952 181.572 218.952 180.71 L 218.952 180.71 L 218.952 157.152 L 218.952 157.152 Q 218.952 156.291 218.091 156.291 L 218.091 156.291 L 214.069 156.291 L 214.069 156.291 Q 213.207 156.291 213.207 155.428 L 213.207 155.428 L 213.207 155.428 Q 213.207 154.566 214.069 154.566 L 214.069 154.566 L 219.814 154.566 L 219.814 154.566 Q 220.677 154.566 220.677 155.428 L 220.677 155.428 L 220.677 180.71 L 220.677 180.71 Q 220.677 181.572 221.538 181.572 L 221.538 181.572 L 225.56 181.572 L 225.56 181.572 Q 226.422 181.572 226.422 182.433 L 226.422 182.433 L 226.422 182.433 Q 226.422 183.295 225.56 183.295 L 225.56 183.295 L 214.069 183.295 Z  M 217.89 149.309 L 217.89 149.309 L 217.89 149.309 Q 217.229 148.648 217.229 147.672 L 217.229 147.672 L 217.229 147.672 Q 217.229 146.695 217.89 146.034 L 217.89 146.034 L 217.89 146.034 Q 218.551 145.373 219.526 145.373 L 219.526 145.373 L 219.526 145.373 Q 220.504 145.373 221.165 146.034 L 221.165 146.034 L 221.165 146.034 Q 221.825 146.695 221.825 147.672 L 221.825 147.672 L 221.825 147.672 Q 221.825 148.648 221.165 149.309 L 221.165 149.309 L 221.165 149.309 Q 220.504 149.97 219.526 149.97 L 219.526 149.97 L 219.526 149.97 Q 218.551 149.97 217.89 149.309 Z  M 234.352 179.733 L 234.352 179.733 L 234.352 179.733 Q 230.444 175.597 230.444 168.931 L 230.444 168.931 L 230.444 168.931 Q 230.444 162.266 234.352 158.13 L 234.352 158.13 L 234.352 158.13 Q 238.258 153.992 244.52 153.992 L 244.52 153.992 L 244.52 153.992 Q 250.784 153.992 254.69 158.13 L 254.69 158.13 L 254.69 158.13 Q 258.598 162.266 258.598 168.931 L 258.598 168.931 L 258.598 168.931 Q 258.598 175.597 254.69 179.733 L 254.69 179.733 L 254.69 179.733 Q 250.784 183.871 244.52 183.871 L 244.52 183.871 L 244.52 183.871 Q 238.258 183.871 234.352 179.733 Z  M 244.52 155.716 L 244.52 155.716 L 244.52 155.716 Q 238.948 155.716 235.557 159.335 L 235.557 159.335 L 235.557 159.335 Q 232.167 162.956 232.167 168.959 L 232.167 168.959 L 232.167 168.959 Q 232.167 174.963 235.528 178.555 L 235.528 178.555 L 235.528 178.555 Q 238.891 182.146 244.52 182.146 L 244.52 182.146 L 244.52 182.146 Q 250.151 182.146 253.514 178.555 L 253.514 178.555 L 253.514 178.555 Q 256.875 174.963 256.875 168.959 L 256.875 168.959 L 256.875 168.959 Q 256.875 162.956 253.484 159.335 L 253.484 159.335 L 253.484 159.335 Q 250.094 155.716 244.52 155.716 Z " fill-rule="evenodd" fill="rgb(153,153,153)"/><path d=" M 305.203 233.016 L 305.203 233.016 L 305.203 233.016 Q 302.835 233.016 301.536 231.557 L 301.536 231.557 L 301.536 231.557 Q 300.237 230.099 300.237 227.431 L 300.237 227.431 L 300.237 227.431 Q 300.237 224.693 301.555 223.2 L 301.555 223.2 L 301.555 223.2 Q 302.875 221.707 305.314 221.707 L 305.314 221.707 L 305.314 221.707 Q 306.1 221.707 306.887 221.875 L 306.887 221.875 L 306.887 221.875 Q 307.674 222.045 308.122 222.275 L 308.122 222.275 L 307.613 223.678 L 307.613 223.678 Q 307.067 223.458 306.418 223.314 L 306.418 223.314 L 306.418 223.314 Q 305.771 223.171 305.274 223.171 L 305.274 223.171 L 305.274 223.171 Q 301.949 223.171 301.949 227.411 L 301.949 227.411 L 301.949 227.411 Q 301.949 229.421 302.761 230.497 L 302.761 230.497 L 302.761 230.497 Q 303.572 231.573 305.164 231.573 L 305.164 231.573 L 305.164 231.573 Q 306.529 231.573 307.961 230.985 L 307.961 230.985 L 307.961 232.448 L 307.961 232.448 Q 306.866 233.016 305.203 233.016 Z  M 319.968 227.35 L 319.968 227.35 L 319.968 227.35 Q 319.968 230.019 318.624 231.517 L 318.624 231.517 L 318.624 231.517 Q 317.28 233.016 314.91 233.016 L 314.91 233.016 L 314.91 233.016 Q 313.446 233.016 312.312 232.329 L 312.312 232.329 L 312.312 232.329 Q 311.177 231.642 310.559 230.357 L 310.559 230.357 L 310.559 230.357 Q 309.943 229.073 309.943 227.35 L 309.943 227.35 L 309.943 227.35 Q 309.943 224.683 311.277 223.195 L 311.277 223.195 L 311.277 223.195 Q 312.611 221.707 314.981 221.707 L 314.981 221.707 L 314.981 221.707 Q 317.27 221.707 318.619 223.23 L 318.619 223.23 L 318.619 223.23 Q 319.968 224.754 319.968 227.35 Z  M 311.654 227.35 L 311.654 227.35 L 311.654 227.35 Q 311.654 229.442 312.492 230.537 L 312.492 230.537 L 312.492 230.537 Q 313.327 231.632 314.95 231.632 L 314.95 231.632 L 314.95 231.632 Q 316.572 231.632 317.415 230.542 L 317.415 230.542 L 317.415 230.542 Q 318.256 229.452 318.256 227.35 L 318.256 227.35 L 318.256 227.35 Q 318.256 225.271 317.415 224.19 L 317.415 224.19 L 317.415 224.19 Q 316.572 223.11 314.931 223.11 L 314.931 223.11 L 314.931 223.11 Q 313.308 223.11 312.481 224.176 L 312.481 224.176 L 312.481 224.176 Q 311.654 225.24 311.654 227.35 Z  M 331.984 232.817 L 330.33 232.817 L 330.33 225.759 L 330.33 225.759 Q 330.33 224.425 329.723 223.768 L 329.723 223.768 L 329.723 223.768 Q 329.116 223.11 327.822 223.11 L 327.822 223.11 L 327.822 223.11 Q 326.109 223.11 325.314 224.036 L 325.314 224.036 L 325.314 224.036 Q 324.518 224.961 324.518 227.092 L 324.518 227.092 L 324.518 232.817 L 322.864 232.817 L 322.864 221.906 L 324.208 221.906 L 324.478 223.399 L 324.558 223.399 L 324.558 223.399 Q 325.064 222.593 325.981 222.15 L 325.981 222.15 L 325.981 222.15 Q 326.896 221.707 328.021 221.707 L 328.021 221.707 L 328.021 221.707 Q 329.993 221.707 330.988 222.657 L 330.988 222.657 L 330.988 222.657 Q 331.984 223.608 331.984 225.698 L 331.984 225.698 L 331.984 232.817 Z  M 338.902 231.652 L 338.902 231.652 L 338.902 231.652 Q 339.34 231.652 339.748 231.587 L 339.748 231.587 L 339.748 231.587 Q 340.156 231.523 340.395 231.452 L 340.395 231.452 L 340.395 232.716 L 340.395 232.716 Q 340.127 232.846 339.604 232.931 L 339.604 232.931 L 339.604 232.931 Q 339.082 233.016 338.663 233.016 L 338.663 233.016 L 338.663 233.016 Q 335.498 233.016 335.498 229.68 L 335.498 229.68 L 335.498 223.19 L 333.935 223.19 L 333.935 222.394 L 335.498 221.707 L 336.195 219.377 L 337.15 219.377 L 337.15 221.906 L 340.315 221.906 L 340.315 223.19 L 337.15 223.19 L 337.15 229.611 L 337.15 229.611 Q 337.15 230.597 337.618 231.125 L 337.618 231.125 L 337.618 231.125 Q 338.085 231.652 338.902 231.652 Z  M 347.185 233.016 L 347.185 233.016 L 347.185 233.016 Q 344.766 233.016 343.367 231.542 L 343.367 231.542 L 343.367 231.542 Q 341.969 230.07 341.969 227.45 L 341.969 227.45 L 341.969 227.45 Q 341.969 224.812 343.268 223.259 L 343.268 223.259 L 343.268 223.259 Q 344.567 221.707 346.757 221.707 L 346.757 221.707 L 346.757 221.707 Q 348.807 221.707 350.003 223.055 L 350.003 223.055 L 350.003 223.055 Q 351.196 224.404 351.196 226.615 L 351.196 226.615 L 351.196 227.66 L 343.68 227.66 L 343.68 227.66 Q 343.73 229.582 344.652 230.576 L 344.652 230.576 L 344.652 230.576 Q 345.573 231.573 347.245 231.573 L 347.245 231.573 L 347.245 231.573 Q 349.006 231.573 350.729 230.836 L 350.729 230.836 L 350.729 232.308 L 350.729 232.308 Q 349.852 232.687 349.072 232.851 L 349.072 232.851 L 349.072 232.851 Q 348.29 233.016 347.185 233.016 Z  M 346.737 223.089 L 346.737 223.089 L 346.737 223.089 Q 345.424 223.089 344.642 223.946 L 344.642 223.946 L 344.642 223.946 Q 343.86 224.802 343.72 226.316 L 343.72 226.316 L 349.425 226.316 L 349.425 226.316 Q 349.425 224.754 348.728 223.921 L 348.728 223.921 L 348.728 223.921 Q 348.031 223.089 346.737 223.089 Z  M 363.133 232.817 L 361.481 232.817 L 361.481 225.759 L 361.481 225.759 Q 361.481 224.425 360.874 223.768 L 360.874 223.768 L 360.874 223.768 Q 360.266 223.11 358.972 223.11 L 358.972 223.11 L 358.972 223.11 Q 357.26 223.11 356.464 224.036 L 356.464 224.036 L 356.464 224.036 Q 355.667 224.961 355.667 227.092 L 355.667 227.092 L 355.667 232.817 L 354.014 232.817 L 354.014 221.906 L 355.359 221.906 L 355.627 223.399 L 355.706 223.399 L 355.706 223.399 Q 356.215 222.593 357.13 222.15 L 357.13 222.15 L 357.13 222.15 Q 358.047 221.707 359.171 221.707 L 359.171 221.707 L 359.171 221.707 Q 361.142 221.707 362.138 222.657 L 362.138 222.657 L 362.138 222.657 Q 363.133 223.608 363.133 225.698 L 363.133 225.698 L 363.133 232.817 Z  M 368.181 221.906 L 368.181 232.817 L 366.529 232.817 L 366.529 221.906 L 368.181 221.906 Z  M 366.388 218.948 L 366.388 218.948 L 366.388 218.948 Q 366.388 218.381 366.667 218.118 L 366.667 218.118 L 366.667 218.118 Q 366.945 217.853 367.364 217.853 L 367.364 217.853 L 367.364 217.853 Q 367.762 217.853 368.051 218.123 L 368.051 218.123 L 368.051 218.123 Q 368.34 218.391 368.34 218.948 L 368.34 218.948 L 368.34 218.948 Q 368.34 219.507 368.051 219.78 L 368.051 219.78 L 368.051 219.78 Q 367.762 220.053 367.364 220.053 L 367.364 220.053 L 367.364 220.053 Q 366.945 220.053 366.667 219.78 L 366.667 219.78 L 366.667 219.78 Q 366.388 219.507 366.388 218.948 Z  M 379.33 232.817 L 379.112 231.353 L 379.022 231.353 L 379.022 231.353 Q 377.877 233.016 375.597 233.016 L 375.597 233.016 L 375.597 233.016 Q 373.457 233.016 372.267 231.552 L 372.267 231.552 L 372.267 231.552 Q 371.078 230.089 371.078 227.392 L 371.078 227.392 L 371.078 227.392 Q 371.078 224.693 372.272 223.2 L 372.272 223.2 L 372.272 223.2 Q 373.467 221.707 375.597 221.707 L 375.597 221.707 L 375.597 221.707 Q 377.816 221.707 379.001 223.319 L 379.001 223.319 L 379.131 223.319 L 379.062 222.532 L 379.022 221.766 L 379.022 217.325 L 380.674 217.325 L 380.674 232.817 L 379.33 232.817 Z  M 375.806 231.632 L 375.806 231.632 L 375.806 231.632 Q 377.498 231.632 378.261 230.711 L 378.261 230.711 L 378.261 230.711 Q 379.022 229.789 379.022 227.739 L 379.022 227.739 L 379.022 227.392 L 379.022 227.392 Q 379.022 225.072 378.25 224.081 L 378.25 224.081 L 378.25 224.081 Q 377.479 223.089 375.787 223.089 L 375.787 223.089 L 375.787 223.089 Q 374.332 223.089 373.561 224.221 L 373.561 224.221 L 373.561 224.221 Q 372.789 225.35 372.789 227.411 L 372.789 227.411 L 372.789 227.411 Q 372.789 229.502 373.555 230.566 L 373.555 230.566 L 373.555 230.566 Q 374.324 231.632 375.806 231.632 Z  M 393.596 227.35 L 393.596 227.35 L 393.596 227.35 Q 393.596 230.019 392.252 231.517 L 392.252 231.517 L 392.252 231.517 Q 390.908 233.016 388.538 233.016 L 388.538 233.016 L 388.538 233.016 Q 387.075 233.016 385.94 232.329 L 385.94 232.329 L 385.94 232.329 Q 384.805 231.642 384.189 230.357 L 384.189 230.357 L 384.189 230.357 Q 383.572 229.073 383.572 227.35 L 383.572 227.35 L 383.572 227.35 Q 383.572 224.683 384.905 223.195 L 384.905 223.195 L 384.905 223.195 Q 386.239 221.707 388.609 221.707 L 388.609 221.707 L 388.609 221.707 Q 390.898 221.707 392.247 223.23 L 392.247 223.23 L 392.247 223.23 Q 393.596 224.754 393.596 227.35 Z  M 385.284 227.35 L 385.284 227.35 L 385.284 227.35 Q 385.284 229.442 386.12 230.537 L 386.12 230.537 L 386.12 230.537 Q 386.955 231.632 388.578 231.632 L 388.578 231.632 L 388.578 231.632 Q 390.201 231.632 391.043 230.542 L 391.043 230.542 L 391.043 230.542 Q 391.884 229.452 391.884 227.35 L 391.884 227.35 L 391.884 227.35 Q 391.884 225.271 391.043 224.19 L 391.043 224.19 L 391.043 224.19 Q 390.201 223.11 388.559 223.11 L 388.559 223.11 L 388.559 223.11 Q 386.936 223.11 386.109 224.176 L 386.109 224.176 L 386.109 224.176 Q 385.284 225.24 385.284 227.35 Z  M 403.531 229.839 L 403.531 229.839 L 403.531 229.839 Q 403.531 231.364 402.396 232.189 L 402.396 232.189 L 402.396 232.189 Q 401.262 233.016 399.21 233.016 L 399.21 233.016 L 399.21 233.016 Q 397.041 233.016 395.826 232.329 L 395.826 232.329 L 395.826 230.796 L 395.826 230.796 Q 396.612 231.194 397.513 231.422 L 397.513 231.422 L 397.513 231.422 Q 398.414 231.652 399.25 231.652 L 399.25 231.652 L 399.25 231.652 Q 400.545 231.652 401.241 231.239 L 401.241 231.239 L 401.241 231.239 Q 401.938 230.826 401.938 229.98 L 401.938 229.98 L 401.938 229.98 Q 401.938 229.341 401.386 228.89 L 401.386 228.89 L 401.386 228.89 Q 400.833 228.437 399.231 227.819 L 399.231 227.819 L 399.231 227.819 Q 397.707 227.252 397.065 226.828 L 397.065 226.828 L 397.065 226.828 Q 396.423 226.406 396.11 225.868 L 396.11 225.868 L 396.11 225.868 Q 395.797 225.33 395.797 224.584 L 395.797 224.584 L 395.797 224.584 Q 395.797 223.25 396.882 222.479 L 396.882 222.479 L 396.882 222.479 Q 397.966 221.707 399.857 221.707 L 399.857 221.707 L 399.857 221.707 Q 401.62 221.707 403.303 222.423 L 403.303 222.423 L 402.715 223.768 L 402.715 223.768 Q 401.073 223.089 399.738 223.089 L 399.738 223.089 L 399.738 223.089 Q 398.563 223.089 397.966 223.458 L 397.966 223.458 L 397.966 223.458 Q 397.369 223.826 397.369 224.473 L 397.369 224.473 L 397.369 224.473 Q 397.369 224.913 397.593 225.221 L 397.593 225.221 L 397.593 225.221 Q 397.817 225.529 398.316 225.809 L 398.316 225.809 L 398.316 225.809 Q 398.812 226.087 400.225 226.615 L 400.225 226.615 L 400.225 226.615 Q 402.168 227.321 402.85 228.039 L 402.85 228.039 L 402.85 228.039 Q 403.531 228.755 403.531 229.839 Z  M 279.262 232.817 L 279.042 231.353 L 278.952 231.353 L 278.952 231.353 Q 277.807 233.016 275.527 233.016 L 275.527 233.016 L 275.527 233.016 Q 273.387 233.016 272.199 231.552 L 272.199 231.552 L 272.199 231.552 Q 271.008 230.089 271.008 227.392 L 271.008 227.392 L 271.008 227.392 Q 271.008 224.693 272.202 223.2 L 272.202 223.2 L 272.202 223.2 Q 273.397 221.707 275.527 221.707 L 275.527 221.707 L 275.527 221.707 Q 277.748 221.707 278.933 223.319 L 278.933 223.319 L 279.061 223.319 L 278.992 222.532 L 278.952 221.766 L 278.952 217.325 L 280.604 217.325 L 280.604 232.817 L 279.262 232.817 Z  M 275.736 231.632 L 275.736 231.632 L 275.736 231.632 Q 277.43 231.632 278.191 230.711 L 278.191 230.711 L 278.191 230.711 Q 278.952 229.789 278.952 227.739 L 278.952 227.739 L 278.952 227.392 L 278.952 227.392 Q 278.952 225.072 278.181 224.081 L 278.181 224.081 L 278.181 224.081 Q 277.409 223.089 275.717 223.089 L 275.717 223.089 L 275.717 223.089 Q 274.264 223.089 273.493 224.221 L 273.493 224.221 L 273.493 224.221 Q 272.721 225.35 272.721 227.411 L 272.721 227.411 L 272.721 227.411 Q 272.721 229.502 273.487 230.566 L 273.487 230.566 L 273.487 230.566 Q 274.254 231.632 275.736 231.632 Z  M 288.719 233.016 L 288.719 233.016 L 288.719 233.016 Q 286.299 233.016 284.901 231.542 L 284.901 231.542 L 284.901 231.542 Q 283.502 230.07 283.502 227.45 L 283.502 227.45 L 283.502 227.45 Q 283.502 224.812 284.801 223.259 L 284.801 223.259 L 284.801 223.259 Q 286.1 221.707 288.29 221.707 L 288.29 221.707 L 288.29 221.707 Q 290.342 221.707 291.535 223.055 L 291.535 223.055 L 291.535 223.055 Q 292.731 224.404 292.731 226.615 L 292.731 226.615 L 292.731 227.66 L 285.214 227.66 L 285.214 227.66 Q 285.265 229.582 286.185 230.576 L 286.185 230.576 L 286.185 230.576 Q 287.105 231.573 288.778 231.573 L 288.778 231.573 L 288.778 231.573 Q 290.541 231.573 292.262 230.836 L 292.262 230.836 L 292.262 232.308 L 292.262 232.308 Q 291.387 232.687 290.605 232.851 L 290.605 232.851 L 290.605 232.851 Q 289.823 233.016 288.719 233.016 Z  M 288.271 223.089 L 288.271 223.089 L 288.271 223.089 Q 286.956 223.089 286.174 223.946 L 286.174 223.946 L 286.174 223.946 Q 285.393 224.802 285.254 226.316 L 285.254 226.316 L 290.958 226.316 L 290.958 226.316 Q 290.958 224.754 290.262 223.921 L 290.262 223.921 L 290.262 223.921 Q 289.565 223.089 288.271 223.089 Z  M 201.959 221.906 L 205.732 221.906 L 205.732 222.951 L 203.712 223.19 L 203.712 223.19 Q 203.99 223.537 204.21 224.101 L 204.21 224.101 L 204.21 224.101 Q 204.428 224.664 204.428 225.369 L 204.428 225.369 L 204.428 225.369 Q 204.428 226.973 203.333 227.928 L 203.333 227.928 L 203.333 227.928 Q 202.238 228.885 200.326 228.885 L 200.326 228.885 L 200.326 228.885 Q 199.838 228.885 199.411 228.805 L 199.411 228.805 L 199.411 228.805 Q 198.356 229.362 198.356 230.208 L 198.356 230.208 L 198.356 230.208 Q 198.356 230.656 198.724 230.87 L 198.724 230.87 L 198.724 230.87 Q 199.093 231.085 199.989 231.085 L 199.989 231.085 L 201.919 231.085 L 201.919 231.085 Q 203.691 231.085 204.642 231.831 L 204.642 231.831 L 204.642 231.831 Q 205.592 232.578 205.592 234.002 L 205.592 234.002 L 205.592 234.002 Q 205.592 235.813 204.139 236.764 L 204.139 236.764 L 204.139 236.764 Q 202.686 237.714 199.899 237.714 L 199.899 237.714 L 199.899 237.714 Q 197.757 237.714 196.598 236.918 L 196.598 236.918 L 196.598 236.918 Q 195.439 236.121 195.439 234.668 L 195.439 234.668 L 195.439 234.668 Q 195.439 233.673 196.076 232.946 L 196.076 232.946 L 196.076 232.946 Q 196.712 232.22 197.868 231.96 L 197.868 231.96 L 197.868 231.96 Q 197.449 231.772 197.166 231.372 L 197.166 231.372 L 197.166 231.372 Q 196.882 230.974 196.882 230.447 L 196.882 230.447 L 196.882 230.447 Q 196.882 229.85 197.2 229.402 L 197.2 229.402 L 197.2 229.402 Q 197.519 228.954 198.205 228.535 L 198.205 228.535 L 198.205 228.535 Q 197.359 228.187 196.827 227.35 L 196.827 227.35 L 196.827 227.35 Q 196.294 226.515 196.294 225.44 L 196.294 225.44 L 196.294 225.44 Q 196.294 223.648 197.37 222.678 L 197.37 222.678 L 197.37 222.678 Q 198.446 221.707 200.416 221.707 L 200.416 221.707 L 200.416 221.707 Q 201.272 221.707 201.959 221.906 L 201.959 221.906 Z  M 197.031 234.649 L 197.031 234.649 L 197.031 234.649 Q 197.031 235.534 197.778 235.993 L 197.778 235.993 L 197.778 235.993 Q 198.525 236.449 199.918 236.449 L 199.918 236.449 L 199.918 236.449 Q 201.999 236.449 202.999 235.828 L 202.999 235.828 L 202.999 235.828 Q 204.001 235.206 204.001 234.14 L 204.001 234.14 L 204.001 234.14 Q 204.001 233.254 203.452 232.912 L 203.452 232.912 L 203.452 232.912 Q 202.905 232.568 201.392 232.568 L 201.392 232.568 L 199.411 232.568 L 199.411 232.568 Q 198.285 232.568 197.659 233.106 L 197.659 233.106 L 197.659 233.106 Q 197.031 233.642 197.031 234.649 Z  M 197.927 225.401 L 197.927 225.401 L 197.927 225.401 Q 197.927 226.544 198.574 227.132 L 198.574 227.132 L 198.574 227.132 Q 199.221 227.719 200.376 227.719 L 200.376 227.719 L 200.376 227.719 Q 202.795 227.719 202.795 225.369 L 202.795 225.369 L 202.795 225.369 Q 202.795 222.911 200.347 222.911 L 200.347 222.911 L 200.347 222.911 Q 199.181 222.911 198.555 223.537 L 198.555 223.537 L 198.555 223.537 Q 197.927 224.165 197.927 225.401 Z  M 212.581 233.016 L 212.581 233.016 L 212.581 233.016 Q 210.162 233.016 208.763 231.542 L 208.763 231.542 L 208.763 231.542 Q 207.365 230.07 207.365 227.45 L 207.365 227.45 L 207.365 227.45 Q 207.365 224.812 208.664 223.259 L 208.664 223.259 L 208.664 223.259 Q 209.963 221.707 212.154 221.707 L 212.154 221.707 L 212.154 221.707 Q 214.203 221.707 215.399 223.055 L 215.399 223.055 L 215.399 223.055 Q 216.592 224.404 216.592 226.615 L 216.592 226.615 L 216.592 227.66 L 209.078 227.66 L 209.078 227.66 Q 209.126 229.582 210.048 230.576 L 210.048 230.576 L 210.048 230.576 Q 210.969 231.573 212.641 231.573 L 212.641 231.573 L 212.641 231.573 Q 214.402 231.573 216.125 230.836 L 216.125 230.836 L 216.125 232.308 L 216.125 232.308 Q 215.25 232.687 214.468 232.851 L 214.468 232.851 L 214.468 232.851 Q 213.686 233.016 212.581 233.016 Z  M 212.133 223.089 L 212.133 223.089 L 212.133 223.089 Q 210.82 223.089 210.038 223.946 L 210.038 223.946 L 210.038 223.946 Q 209.256 224.802 209.118 226.316 L 209.118 226.316 L 214.821 226.316 L 214.821 226.316 Q 214.821 224.754 214.124 223.921 L 214.124 223.921 L 214.124 223.921 Q 213.427 223.089 212.133 223.089 Z  M 226.449 229.839 L 226.449 229.839 L 226.449 229.839 Q 226.449 231.364 225.315 232.189 L 225.315 232.189 L 225.315 232.189 Q 224.18 233.016 222.128 233.016 L 222.128 233.016 L 222.128 233.016 Q 219.959 233.016 218.743 232.329 L 218.743 232.329 L 218.743 230.796 L 218.743 230.796 Q 219.53 231.194 220.431 231.422 L 220.431 231.422 L 220.431 231.422 Q 221.332 231.652 222.168 231.652 L 222.168 231.652 L 222.168 231.652 Q 223.462 231.652 224.159 231.239 L 224.159 231.239 L 224.159 231.239 Q 224.856 230.826 224.856 229.98 L 224.856 229.98 L 224.856 229.98 Q 224.856 229.341 224.303 228.89 L 224.303 228.89 L 224.303 228.89 Q 223.751 228.437 222.149 227.819 L 222.149 227.819 L 222.149 227.819 Q 220.625 227.252 219.983 226.828 L 219.983 226.828 L 219.983 226.828 Q 219.341 226.406 219.026 225.868 L 219.026 225.868 L 219.026 225.868 Q 218.713 225.33 218.713 224.584 L 218.713 224.584 L 218.713 224.584 Q 218.713 223.25 219.798 222.479 L 219.798 222.479 L 219.798 222.479 Q 220.884 221.707 222.775 221.707 L 222.775 221.707 L 222.775 221.707 Q 224.538 221.707 226.219 222.423 L 226.219 222.423 L 225.633 223.768 L 225.633 223.768 Q 223.99 223.089 222.656 223.089 L 222.656 223.089 L 222.656 223.089 Q 221.481 223.089 220.884 223.458 L 220.884 223.458 L 220.884 223.458 Q 220.286 223.826 220.286 224.473 L 220.286 224.473 L 220.286 224.473 Q 220.286 224.913 220.511 225.221 L 220.511 225.221 L 220.511 225.221 Q 220.734 225.529 221.232 225.809 L 221.232 225.809 L 221.232 225.809 Q 221.73 226.087 223.144 226.615 L 223.144 226.615 L 223.144 226.615 Q 225.085 227.321 225.766 228.039 L 225.766 228.039 L 225.766 228.039 Q 226.449 228.755 226.449 229.839 Z  M 232.662 231.652 L 232.662 231.652 L 232.662 231.652 Q 233.099 231.652 233.508 231.587 L 233.508 231.587 L 233.508 231.587 Q 233.916 231.523 234.154 231.452 L 234.154 231.452 L 234.154 232.716 L 234.154 232.716 Q 233.885 232.846 233.362 232.931 L 233.362 232.931 L 233.362 232.931 Q 232.84 233.016 232.421 233.016 L 232.421 233.016 L 232.421 233.016 Q 229.255 233.016 229.255 229.68 L 229.255 229.68 L 229.255 223.19 L 227.693 223.19 L 227.693 222.394 L 229.255 221.707 L 229.953 219.377 L 230.909 219.377 L 230.909 221.906 L 234.075 221.906 L 234.075 223.19 L 230.909 223.19 L 230.909 229.611 L 230.909 229.611 Q 230.909 230.597 231.376 231.125 L 231.376 231.125 L 231.376 231.125 Q 231.845 231.652 232.662 231.652 Z  M 237.986 221.906 L 237.986 232.817 L 236.334 232.817 L 236.334 221.906 L 237.986 221.906 Z  M 236.196 218.948 L 236.196 218.948 L 236.196 218.948 Q 236.196 218.381 236.474 218.118 L 236.474 218.118 L 236.474 218.118 Q 236.753 217.853 237.17 217.853 L 237.17 217.853 L 237.17 217.853 Q 237.569 217.853 237.858 218.123 L 237.858 218.123 L 237.858 218.123 Q 238.145 218.391 238.145 218.948 L 238.145 218.948 L 238.145 218.948 Q 238.145 219.507 237.858 219.78 L 237.858 219.78 L 237.858 219.78 Q 237.569 220.053 237.17 220.053 L 237.17 220.053 L 237.17 220.053 Q 236.753 220.053 236.474 219.78 L 236.474 219.78 L 236.474 219.78 Q 236.196 219.507 236.196 218.948 Z  M 250.909 227.35 L 250.909 227.35 L 250.909 227.35 Q 250.909 230.019 249.564 231.517 L 249.564 231.517 L 249.564 231.517 Q 248.22 233.016 245.852 233.016 L 245.852 233.016 L 245.852 233.016 Q 244.389 233.016 243.254 232.329 L 243.254 232.329 L 243.254 232.329 Q 242.119 231.642 241.501 230.357 L 241.501 230.357 L 241.501 230.357 Q 240.884 229.073 240.884 227.35 L 240.884 227.35 L 240.884 227.35 Q 240.884 224.683 242.218 223.195 L 242.218 223.195 L 242.218 223.195 Q 243.551 221.707 245.921 221.707 L 245.921 221.707 L 245.921 221.707 Q 248.21 221.707 249.559 223.23 L 249.559 223.23 L 249.559 223.23 Q 250.909 224.754 250.909 227.35 Z  M 242.596 227.35 L 242.596 227.35 L 242.596 227.35 Q 242.596 229.442 243.432 230.537 L 243.432 230.537 L 243.432 230.537 Q 244.269 231.632 245.892 231.632 L 245.892 231.632 L 245.892 231.632 Q 247.515 231.632 248.355 230.542 L 248.355 230.542 L 248.355 230.542 Q 249.196 229.452 249.196 227.35 L 249.196 227.35 L 249.196 227.35 Q 249.196 225.271 248.355 224.19 L 248.355 224.19 L 248.355 224.19 Q 247.515 223.11 245.871 223.11 L 245.871 223.11 L 245.871 223.11 Q 244.248 223.11 243.422 224.176 L 243.422 224.176 L 243.422 224.176 Q 242.596 225.24 242.596 227.35 Z  M 244.508 220.462 L 244.508 220.213 L 244.508 220.213 Q 244.985 219.597 245.537 218.72 L 245.537 218.72 L 245.537 218.72 Q 246.091 217.844 246.409 217.197 L 246.409 217.197 L 248.419 217.197 L 248.419 217.407 L 248.419 217.407 Q 247.982 218.054 247.115 218.998 L 247.115 218.998 L 247.115 218.998 Q 246.25 219.944 245.612 220.462 L 245.612 220.462 L 244.508 220.462 Z  M 262.925 232.817 L 261.272 232.817 L 261.272 225.759 L 261.272 225.759 Q 261.272 224.425 260.665 223.768 L 260.665 223.768 L 260.665 223.768 Q 260.058 223.11 258.764 223.11 L 258.764 223.11 L 258.764 223.11 Q 257.052 223.11 256.254 224.036 L 256.254 224.036 L 256.254 224.036 Q 255.458 224.961 255.458 227.092 L 255.458 227.092 L 255.458 232.817 L 253.806 232.817 L 253.806 221.906 L 255.15 221.906 L 255.418 223.399 L 255.498 223.399 L 255.498 223.399 Q 256.005 222.593 256.922 222.15 L 256.922 222.15 L 256.922 222.15 Q 257.837 221.707 258.963 221.707 L 258.963 221.707 L 258.963 221.707 Q 260.933 221.707 261.93 222.657 L 261.93 222.657 L 261.93 222.657 Q 262.925 223.608 262.925 225.698 L 262.925 225.698 L 262.925 232.817 Z  M 175.22 232.817 L 175 231.353 L 174.91 231.353 L 174.91 231.353 Q 173.767 233.016 171.487 233.016 L 171.487 233.016 L 171.487 233.016 Q 169.345 233.016 168.157 231.552 L 168.157 231.552 L 168.157 231.552 Q 166.967 230.089 166.967 227.392 L 166.967 227.392 L 166.967 227.392 Q 166.967 224.693 168.162 223.2 L 168.162 223.2 L 168.162 223.2 Q 169.356 221.707 171.487 221.707 L 171.487 221.707 L 171.487 221.707 Q 173.706 221.707 174.891 223.319 L 174.891 223.319 L 175.021 223.319 L 174.95 222.532 L 174.91 221.766 L 174.91 217.325 L 176.564 217.325 L 176.564 232.817 L 175.22 232.817 Z  M 171.696 231.632 L 171.696 231.632 L 171.696 231.632 Q 173.388 231.632 174.149 230.711 L 174.149 230.711 L 174.149 230.711 Q 174.91 229.789 174.91 227.739 L 174.91 227.739 L 174.91 227.392 L 174.91 227.392 Q 174.91 225.072 174.139 224.081 L 174.139 224.081 L 174.139 224.081 Q 173.367 223.089 171.675 223.089 L 171.675 223.089 L 171.675 223.089 Q 170.222 223.089 169.451 224.221 L 169.451 224.221 L 169.451 224.221 Q 168.679 225.35 168.679 227.411 L 168.679 227.411 L 168.679 227.411 Q 168.679 229.502 169.446 230.566 L 169.446 230.566 L 169.446 230.566 Q 170.212 231.632 171.696 231.632 Z  M 184.677 233.016 L 184.677 233.016 L 184.677 233.016 Q 182.257 233.016 180.86 231.542 L 180.86 231.542 L 180.86 231.542 Q 179.46 230.07 179.46 227.45 L 179.46 227.45 L 179.46 227.45 Q 179.46 224.812 180.759 223.259 L 180.759 223.259 L 180.759 223.259 Q 182.058 221.707 184.248 221.707 L 184.248 221.707 L 184.248 221.707 Q 186.3 221.707 187.494 223.055 L 187.494 223.055 L 187.494 223.055 Q 188.689 224.404 188.689 226.615 L 188.689 226.615 L 188.689 227.66 L 181.173 227.66 L 181.173 227.66 Q 181.223 229.582 182.143 230.576 L 182.143 230.576 L 182.143 230.576 Q 183.063 231.573 184.736 231.573 L 184.736 231.573 L 184.736 231.573 Q 186.499 231.573 188.22 230.836 L 188.22 230.836 L 188.22 232.308 L 188.22 232.308 Q 187.345 232.687 186.563 232.851 L 186.563 232.851 L 186.563 232.851 Q 185.781 233.016 184.677 233.016 Z  M 184.229 223.089 L 184.229 223.089 L 184.229 223.089 Q 182.915 223.089 182.133 223.946 L 182.133 223.946 L 182.133 223.946 Q 181.353 224.802 181.212 226.316 L 181.212 226.316 L 186.918 226.316 L 186.918 226.316 Q 186.918 224.754 186.221 223.921 L 186.221 223.921 L 186.221 223.921 Q 185.523 223.089 184.229 223.089 Z  M 95.727 228.943 L 95.727 228.943 L 95.727 228.943 Q 95.727 230.865 94.333 231.94 L 94.333 231.94 L 94.333 231.94 Q 92.941 233.016 90.552 233.016 L 90.552 233.016 L 90.552 233.016 Q 87.962 233.016 86.569 232.348 L 86.569 232.348 L 86.569 230.717 L 86.569 230.717 Q 87.465 231.094 88.521 231.313 L 88.521 231.313 L 88.521 231.313 Q 89.576 231.531 90.61 231.531 L 90.61 231.531 L 90.61 231.531 Q 92.302 231.531 93.159 230.89 L 93.159 230.89 L 93.159 230.89 Q 94.015 230.248 94.015 229.103 L 94.015 229.103 L 94.015 229.103 Q 94.015 228.347 93.712 227.864 L 93.712 227.864 L 93.712 227.864 Q 93.408 227.381 92.697 226.973 L 92.697 226.973 L 92.697 226.973 Q 91.984 226.565 90.531 226.048 L 90.531 226.048 L 90.531 226.048 Q 88.5 225.321 87.63 224.325 L 87.63 224.325 L 87.63 224.325 Q 86.758 223.33 86.758 221.726 L 86.758 221.726 L 86.758 221.726 Q 86.758 220.045 88.022 219.048 L 88.022 219.048 L 88.022 219.048 Q 89.287 218.054 91.368 218.054 L 91.368 218.054 L 91.368 218.054 Q 93.537 218.054 95.359 218.849 L 95.359 218.849 L 94.831 220.323 L 94.831 220.323 Q 93.031 219.566 91.327 219.566 L 91.327 219.566 L 91.327 219.566 Q 89.984 219.566 89.226 220.143 L 89.226 220.143 L 89.226 220.143 Q 88.47 220.721 88.47 221.747 L 88.47 221.747 L 88.47 221.747 Q 88.47 222.503 88.749 222.986 L 88.749 222.986 L 88.749 222.986 Q 89.028 223.468 89.69 223.871 L 89.69 223.871 L 89.69 223.871 Q 90.353 224.274 91.716 224.762 L 91.716 224.762 L 91.716 224.762 Q 94.006 225.579 94.866 226.515 L 94.866 226.515 L 94.866 226.515 Q 95.727 227.45 95.727 228.943 Z  M 100.108 221.906 L 100.108 232.817 L 98.456 232.817 L 98.456 221.906 L 100.108 221.906 Z  M 98.315 218.948 L 98.315 218.948 L 98.315 218.948 Q 98.315 218.381 98.594 218.118 L 98.594 218.118 L 98.594 218.118 Q 98.874 217.853 99.291 217.853 L 99.291 217.853 L 99.291 217.853 Q 99.689 217.853 99.978 218.123 L 99.978 218.123 L 99.978 218.123 Q 100.267 218.391 100.267 218.948 L 100.267 218.948 L 100.267 218.948 Q 100.267 219.507 99.978 219.78 L 99.978 219.78 L 99.978 219.78 Q 99.689 220.053 99.291 220.053 L 99.291 220.053 L 99.291 220.053 Q 98.874 220.053 98.594 219.78 L 98.594 219.78 L 98.594 219.78 Q 98.315 219.507 98.315 218.948 Z  M 110.65 229.839 L 110.65 229.839 L 110.65 229.839 Q 110.65 231.364 109.515 232.189 L 109.515 232.189 L 109.515 232.189 Q 108.38 233.016 106.33 233.016 L 106.33 233.016 L 106.33 233.016 Q 104.159 233.016 102.945 232.329 L 102.945 232.329 L 102.945 230.796 L 102.945 230.796 Q 103.732 231.194 104.633 231.422 L 104.633 231.422 L 104.633 231.422 Q 105.534 231.652 106.37 231.652 L 106.37 231.652 L 106.37 231.652 Q 107.664 231.652 108.361 231.239 L 108.361 231.239 L 108.361 231.239 Q 109.058 230.826 109.058 229.98 L 109.058 229.98 L 109.058 229.98 Q 109.058 229.341 108.505 228.89 L 108.505 228.89 L 108.505 228.89 Q 107.953 228.437 106.349 227.819 L 106.349 227.819 L 106.349 227.819 Q 104.827 227.252 104.185 226.828 L 104.185 226.828 L 104.185 226.828 Q 103.543 226.406 103.228 225.868 L 103.228 225.868 L 103.228 225.868 Q 102.915 225.33 102.915 224.584 L 102.915 224.584 L 102.915 224.584 Q 102.915 223.25 104 222.479 L 104 222.479 L 104 222.479 Q 105.086 221.707 106.977 221.707 L 106.977 221.707 L 106.977 221.707 Q 108.74 221.707 110.421 222.423 L 110.421 222.423 L 109.835 223.768 L 109.835 223.768 Q 108.191 223.089 106.858 223.089 L 106.858 223.089 L 106.858 223.089 Q 105.683 223.089 105.086 223.458 L 105.086 223.458 L 105.086 223.458 Q 104.488 223.826 104.488 224.473 L 104.488 224.473 L 104.488 224.473 Q 104.488 224.913 104.713 225.221 L 104.713 225.221 L 104.713 225.221 Q 104.936 225.529 105.434 225.809 L 105.434 225.809 L 105.434 225.809 Q 105.932 226.087 107.345 226.615 L 107.345 226.615 L 107.345 226.615 Q 109.286 227.321 109.968 228.039 L 109.968 228.039 L 109.968 228.039 Q 110.65 228.755 110.65 229.839 Z  M 116.862 231.652 L 116.862 231.652 L 116.862 231.652 Q 117.301 231.652 117.709 231.587 L 117.709 231.587 L 117.709 231.587 Q 118.116 231.523 118.356 231.452 L 118.356 231.452 L 118.356 232.716 L 118.356 232.716 Q 118.086 232.846 117.564 232.931 L 117.564 232.931 L 117.564 232.931 Q 117.042 233.016 116.623 233.016 L 116.623 233.016 L 116.623 233.016 Q 113.457 233.016 113.457 229.68 L 113.457 229.68 L 113.457 223.19 L 111.895 223.19 L 111.895 222.394 L 113.457 221.707 L 114.154 219.377 L 115.111 219.377 L 115.111 221.906 L 118.277 221.906 L 118.277 223.19 L 115.111 223.19 L 115.111 229.611 L 115.111 229.611 Q 115.111 230.597 115.578 231.125 L 115.578 231.125 L 115.578 231.125 Q 116.047 231.652 116.862 231.652 Z  M 125.144 233.016 L 125.144 233.016 L 125.144 233.016 Q 122.726 233.016 121.327 231.542 L 121.327 231.542 L 121.327 231.542 Q 119.929 230.07 119.929 227.45 L 119.929 227.45 L 119.929 227.45 Q 119.929 224.812 121.228 223.259 L 121.228 223.259 L 121.228 223.259 Q 122.527 221.707 124.717 221.707 L 124.717 221.707 L 124.717 221.707 Q 126.767 221.707 127.963 223.055 L 127.963 223.055 L 127.963 223.055 Q 129.158 224.404 129.158 226.615 L 129.158 226.615 L 129.158 227.66 L 121.641 227.66 L 121.641 227.66 Q 121.69 229.582 122.612 230.576 L 122.612 230.576 L 122.612 230.576 Q 123.532 231.573 125.205 231.573 L 125.205 231.573 L 125.205 231.573 Q 126.966 231.573 128.689 230.836 L 128.689 230.836 L 128.689 232.308 L 128.689 232.308 Q 127.814 232.687 127.032 232.851 L 127.032 232.851 L 127.032 232.851 Q 126.25 233.016 125.144 233.016 Z  M 124.696 223.089 L 124.696 223.089 L 124.696 223.089 Q 123.383 223.089 122.602 223.946 L 122.602 223.946 L 122.602 223.946 Q 121.82 224.802 121.681 226.316 L 121.681 226.316 L 127.385 226.316 L 127.385 226.316 Q 127.385 224.754 126.688 223.921 L 126.688 223.921 L 126.688 223.921 Q 125.992 223.089 124.696 223.089 Z  M 147.535 232.817 L 145.881 232.817 L 145.881 225.719 L 145.881 225.719 Q 145.881 224.414 145.324 223.762 L 145.324 223.762 L 145.324 223.762 Q 144.767 223.11 143.592 223.11 L 143.592 223.11 L 143.592 223.11 Q 142.049 223.11 141.312 223.996 L 141.312 223.996 L 141.312 223.996 Q 140.575 224.882 140.575 226.724 L 140.575 226.724 L 140.575 232.817 L 138.923 232.817 L 138.923 225.719 L 138.923 225.719 Q 138.923 224.414 138.366 223.762 L 138.366 223.762 L 138.366 223.762 Q 137.807 223.11 136.624 223.11 L 136.624 223.11 L 136.624 223.11 Q 135.071 223.11 134.349 224.041 L 134.349 224.041 L 134.349 224.041 Q 133.626 224.972 133.626 227.092 L 133.626 227.092 L 133.626 232.817 L 131.974 232.817 L 131.974 221.906 L 133.318 221.906 L 133.586 223.399 L 133.666 223.399 L 133.666 223.399 Q 134.135 222.602 134.986 222.155 L 134.986 222.155 L 134.986 222.155 Q 135.837 221.707 136.892 221.707 L 136.892 221.707 L 136.892 221.707 Q 139.451 221.707 140.238 223.558 L 140.238 223.558 L 140.317 223.558 L 140.317 223.558 Q 140.805 222.702 141.731 222.204 L 141.731 222.204 L 141.731 222.204 Q 142.656 221.707 143.841 221.707 L 143.841 221.707 L 143.841 221.707 Q 145.692 221.707 146.613 222.657 L 146.613 222.657 L 146.613 222.657 Q 147.535 223.608 147.535 225.698 L 147.535 225.698 L 147.535 232.817 Z  M 158.872 232.817 L 157.649 232.817 L 157.321 231.263 L 157.241 231.263 L 157.241 231.263 Q 156.425 232.289 155.613 232.652 L 155.613 232.652 L 155.613 232.652 Q 154.802 233.016 153.588 233.016 L 153.588 233.016 L 153.588 233.016 Q 151.965 233.016 151.043 232.18 L 151.043 232.18 L 151.043 232.18 Q 150.123 231.343 150.123 229.8 L 150.123 229.8 L 150.123 229.8 Q 150.123 226.496 155.409 226.336 L 155.409 226.336 L 157.26 226.276 L 157.26 225.599 L 157.26 225.599 Q 157.26 224.314 156.708 223.702 L 156.708 223.702 L 156.708 223.702 Q 156.155 223.089 154.94 223.089 L 154.94 223.089 L 154.94 223.089 Q 153.577 223.089 151.854 223.927 L 151.854 223.927 L 151.347 222.662 L 151.347 222.662 Q 152.154 222.224 153.114 221.975 L 153.114 221.975 L 153.114 221.975 Q 154.075 221.726 155.041 221.726 L 155.041 221.726 L 155.041 221.726 Q 156.992 221.726 157.933 222.593 L 157.933 222.593 L 157.933 222.593 Q 158.872 223.458 158.872 225.369 L 158.872 225.369 L 158.872 232.817 Z  M 153.916 231.652 L 153.916 231.652 L 153.916 231.652 Q 155.459 231.652 156.34 230.805 L 156.34 230.805 L 156.34 230.805 Q 157.22 229.959 157.22 228.437 L 157.22 228.437 L 157.22 227.45 L 155.568 227.52 L 155.568 227.52 Q 153.596 227.591 152.726 228.132 L 152.726 228.132 L 152.726 228.132 Q 151.854 228.675 151.854 229.82 L 151.854 229.82 L 151.854 229.82 Q 151.854 230.717 152.397 231.184 L 152.397 231.184 L 152.397 231.184 Q 152.941 231.652 153.916 231.652 Z " fill-rule="evenodd" fill="rgb(172,172,172)"/><line x1="90.209" y1="202.375" x2="403.322" y2="202.375" vector-effect="non-scaling-stroke" stroke-width="1.73" stroke="rgb(153,153,153)" stroke-linejoin="miter" stroke-linecap="square" stroke-miterlimit="3"/></g></g></svg>